<svg width="90" height="90" fill="none" xmlns="http://www.w3.org/2000/svg"><g clip-path="url(#clip0)" fill="#857122"><path d="M39.747 31.38l.417 7.51A4.847 4.847 0 0 0 45 43.464a4.846 4.846 0 0 0 4.834-4.576l.417-7.508.556-10.012c.03-.499-.146-.974-.49-1.34a1.79 1.79 0 0 0-1.312-.566h-8.01c-.502 0-.968.2-1.313.566-.344.364-.519.841-.49 1.34l.556 10.012zM64.5 17.966h6v6h-6v-6zM48 58.465a3 3 0 1 1-6 0 3 3 0 0 1 6 0zm-28.5-40.5h6v6h-6v-6z"/><path d="M76.5 32.965H53.169l-.34 6.093c-.043.779-.23 1.51-.483 2.21-1.094 3.034-3.966 5.199-7.347 5.199-3.469 0-6.406-2.273-7.431-5.43-.206-.632-.362-1.286-.401-1.978l-.339-6.092H13.495a1.5 1.5 0 0 0-1.5 1.5v34.5a1.5 1.5 0 0 0 1.5 1.5h63a1.5 1.5 0 0 0 1.5-1.5v-34.5a1.494 1.494 0 0 0-1.495-1.502zM45 64.465c-3.309 0-6-2.69-6-6 0-3.309 2.691-6 6-6s6 2.691 6 6c0 3.31-2.693 6-6 6z"/><path d="M82.5 8.965h-75c-4.135 0-7.5 3.364-7.5 7.5v57c0 4.136 3.365 7.5 7.5 7.5h75c4.135 0 7.5-3.364 7.5-7.5v-57c0-4.136-3.365-7.5-7.5-7.5zm-24 10.5h3v-3c0-.83.672-1.5 1.5-1.5h9c.828 0 1.5.67 1.5 1.5v3h3a1.5 1.5 0 1 1 0 3h-3v3a1.5 1.5 0 0 1-1.5 1.5h-9a1.5 1.5 0 0 1-1.5-1.5v-3h-3a1.5 1.5 0 1 1 0-3zm-45 0h3v-3c0-.83.672-1.5 1.5-1.5h9c.828 0 1.5.67 1.5 1.5v3h3a1.5 1.5 0 1 1 0 3h-3v3a1.5 1.5 0 0 1-1.5 1.5h-9a1.5 1.5 0 0 1-1.5-1.5v-3h-3a1.5 1.5 0 1 1 0-3zm67.5 49.5c0 2.481-2.02 4.5-4.5 4.5h-63c-2.48 0-4.5-2.019-4.5-4.5v-34.5c0-2.481 2.02-4.5 4.5-4.5h23.165l-.468-8.427a4.825 4.825 0 0 1 1.308-3.57 4.825 4.825 0 0 1 3.491-1.503h8.01c1.316 0 2.588.547 3.492 1.503a4.828 4.828 0 0 1 1.308 3.57l-.467 8.427h23.164c2.481 0 4.5 2.019 4.5 4.5v34.5H81z"/></g><defs><clipPath id="clip0"><path fill="#fff" d="M0 0H90V90H0z"/></clipPath></defs></svg>