<svg width="90" height="90" fill="none" xmlns="http://www.w3.org/2000/svg"><g clip-path="url(#clip0)"><path d="M88.182 10.798a1.25 1.25 0 0 0-2.18-.266c-1.58 2.214-3.653 2.952-6.054 3.807-1.935.69-3.938 1.402-6.101 2.956-3.06 2.196-4.46 5.19-3.762 8.03l-.074.095a41.053 41.053 0 0 0-4.135-5.1C59.01 13.159 49.42 8.854 39.56 8.508a37.672 37.672 0 0 0-1.312-.023c-11.01 0-21.548 4.922-28.913 13.504C2.01 30.525-1.237 41.638.427 52.478c.14.905.314 1.82.518 2.72C3.653 67.117 10.57 76.183 19.92 80.072c2.305.959 4.63 1.445 6.909 1.445 5.663 0 10.61-3.03 13.572-8.31 1.126-2.01 1.852-4.088 2.158-6.178.18-1.234.057-2.466-.062-3.66-.123-1.23-.24-2.391-.053-3.56.426-2.682 2.299-4.283 5.01-4.283.77 0 1.558.127 2.345.378A122.436 122.436 0 0 0 47.31 60.7c-1.55 3.17-2.618 5.794-3.177 7.8-.345 1.238-1.261 4.526.973 6.077.71.492 1.609.666 2.545.492.843-.157 3.41-.634 10.704-8.937 1.957-2.229 4.067-4.807 6.272-7.666 5.66-1.906 10.064-6.65 11.23-12.102.291-1.363.413-2.821.361-4.336a194.005 194.005 0 0 0 5.849-9.616c.036-.063.071-.13.106-.2 2.715-.744 5.053-2.856 6.426-5.81 2.003-4.313 1.856-9.855-.416-15.605zm-30.6 20.419a5.306 5.306 0 0 1-4.515 2.49 5.313 5.313 0 0 1-2.835-.82 5.296 5.296 0 0 1-2.357-3.33 5.295 5.295 0 0 1 .687-4.02 5.307 5.307 0 0 1 4.516-2.491 5.31 5.31 0 0 1 2.834.82 5.294 5.294 0 0 1 2.358 3.33 5.297 5.297 0 0 1-.688 4.02zm6.919 9.657a237.339 237.339 0 0 1 8.25-11.428c.44.397.93.784 1.462 1.152.88.611 1.801 1.084 2.742 1.408-2.285 3.908-4.742 7.78-7.717 12.161-4.889 7.203-9.971 13.893-14.312 18.84-2.425 2.762-4.547 4.895-6.182 6.216.631-2.019 1.837-4.79 3.516-8.072 3.001-5.87 7.349-13.072 12.24-20.277zm-47.312-.034a5.313 5.313 0 0 1-2.835-.82 5.294 5.294 0 0 1-2.357-3.33 5.294 5.294 0 0 1 .688-4.021 5.306 5.306 0 0 1 4.515-2.49c1.002 0 1.983.283 2.835.82a5.337 5.337 0 0 1 1.67 7.35 5.308 5.308 0 0 1-4.516 2.49zm-5.587 11.736a5.306 5.306 0 0 1 4.515-2.49c1.002 0 1.983.284 2.835.82a5.295 5.295 0 0 1 2.357 3.33 5.293 5.293 0 0 1-.687 4.02 5.306 5.306 0 0 1-4.515 2.49 5.315 5.315 0 0 1-2.835-.82 5.294 5.294 0 0 1-2.357-3.329 5.299 5.299 0 0 1 .687-4.02zm17.07-31.656a5.307 5.307 0 0 1 4.515-2.49c1.002 0 1.982.284 2.834.82a5.336 5.336 0 0 1 1.671 7.35 5.307 5.307 0 0 1-4.516 2.491 5.311 5.311 0 0 1-2.834-.82 5.293 5.293 0 0 1-2.357-3.33 5.294 5.294 0 0 1 .687-4.02z" fill="#857122"/></g><defs><clipPath id="clip0"><path fill="#fff" d="M0 0H90V90H0z"/></clipPath></defs></svg>