<svg width="90" height="90" fill="none" xmlns="http://www.w3.org/2000/svg"><g clip-path="url(#clip0)" fill="#857122"><path d="M21.82 37.901a8.058 8.058 0 0 1 6.77 2.294l4.476 4.476 4.233-4.215-6.117-6.099a2.443 2.443 0 0 1 0-3.45 2.443 2.443 0 0 1 3.45 0l6.117 6.118 4.234-4.215-4.495-4.495a8.077 8.077 0 0 1-2.294-6.77A19.047 19.047 0 0 0 32.786 5.58C28.347 1.141 22.267-.649 16.504.21c-.914.13-1.287 1.268-.634 1.92l5.763 5.764c2.742 2.741 2.742 7.18 0 9.903l-3.544 3.544c-2.741 2.741-7.18 2.741-9.903 0l-5.781-5.763c-.653-.653-1.772-.28-1.921.634-.858 5.763.932 11.843 5.37 16.282A19.047 19.047 0 0 0 21.82 37.9zm35.845 7.59l-4.233 4.215 25.14 25.14c.951.952.951 2.5 0 3.451-.951.951-2.5.951-3.45 0l-25.14-25.14-4.234 4.214 25.905 25.906c3.282 3.282 8.597 3.263 11.88-.02a8.414 8.414 0 0 0 .019-11.88L57.665 45.492z"/><path d="M67.382 28.706h11.171L89.725 6.382 84.148.806 61.805 11.958V23.13L31.443 53.4l-5.465-5.447L3.971 69.961a11.73 11.73 0 0 0 0 16.598 11.73 11.73 0 0 0 16.599 0l22.007-22.007-5.576-5.576 30.38-30.27z"/></g><defs><clipPath id="clip0"><path fill="#fff" d="M0 0H90V90H0z"/></clipPath></defs></svg>