<svg width="90" height="90" fill="none" xmlns="http://www.w3.org/2000/svg"><g clip-path="url(#clip0)" fill="#857122"><path d="M50.167 16.024h-30.68a4.092 4.092 0 0 0-4.093 4.09 4.092 4.092 0 0 0 4.092 4.09h30.68a4.09 4.09 0 1 0 0-8.18zm4.09 19.43c0-2.26-1.829-4.09-4.092-4.09H19.486a4.092 4.092 0 0 0 0 8.183h30.68a4.09 4.09 0 0 0 4.09-4.092zM34.828 54.886a4.09 4.09 0 0 0 0-8.182H19.486a4.091 4.091 0 1 0 0 8.182h15.342z"/><path d="M65.708 68.802l-4.291 2.832v10.184H8.236V8.182h53.18v16.166L69.6 10.176V4.09c0-2.26-1.833-4.09-4.092-4.09H4.144a4.09 4.09 0 0 0-4.09 4.09v81.822a4.09 4.09 0 0 0 4.09 4.09h61.363a4.093 4.093 0 0 0 4.094-4.09V63.364l-1.955 3.382a6.167 6.167 0 0 1-1.938 2.056z"/><path d="M89.899 18.946c-.085-.368-.948-3.673-6.153-6.68-5.205-3.004-8.498-2.1-8.862-1.987-.488.155-.9.484-1.157.929L48.16 55.492a2.07 2.07 0 0 0-.272.903l-.958 15.98a2.05 2.05 0 0 0 1.017 1.894c.674.387 1.503.36 2.15-.063l13.36-8.82c.267-.173.487-.408.646-.682l25.57-44.291c.256-.445.335-.966.226-1.467zm-34.647 48.18a18 18 0 0 0-2.28-1.549 18.277 18.277 0 0 0-2.484-1.202l.286-4.791c1.066.14 2.648.572 4.657 1.729 2.006 1.158 3.169 2.315 3.828 3.167l-4.007 2.646zm-26.678 6.662c.134.822 1.082 1.076 1.716 1.34.613.26 1.344-.231 1.854-.478 3.12-1.519 7.349.266 10.692.266 1.979 0 1.979-3.067 0-3.067-3.898 0-7.142-.987-11.006-.349 0-.224-.083-.527-.324-.938-.722-1.235-1.641-1.586-2.562-1.436-.061-.146-.12-.292-.207-.439a1.427 1.427 0 0 0-.957-.674c1.078-1.884 1.773-3.878 1.066-5.49-.216-.49-.83-.741-1.325-.76-2.049-.077-3.807 2.074-5.124 3.364-3.296 3.23-6.199 6.898-9.008 10.547-1.206 1.569 1.461 3.093 2.649 1.551 2.489-3.232 5.126-6.37 7.963-9.306a51.251 51.251 0 0 1-2.173 3.284c-1.091 1.687 1.515 3.123 2.648 1.55.27-.412.613-.71.989-.964-.075.19-.152.375-.228.567.004 0 .007.002.011.004-.06.122-.119.245-.167.362-.685 1.717 1.875 2.504 2.806 1.18.235-.334.454-.69.65-1.064-.012.257-.018.602.037.95z"/></g><defs><clipPath id="clip0"><path fill="#fff" d="M0 0H90V90H0z"/></clipPath></defs></svg>