<svg width="90" height="90" fill="none" xmlns="http://www.w3.org/2000/svg"><g clip-path="url(#clip0)"><path d="M70.707 3.229c0-1.222-.707-2.378-1.8-2.893-1.157-.578-2.442-.385-3.407.386l-28.473 22.69 33.68 33.68V3.228zM89.05 84.51L5.493.954a3.216 3.216 0 0 0-4.544 0 3.216 3.216 0 0 0 0 4.544L21.17 25.725h-1.883c-1.993 0-3.728.9-4.885 2.314a6.263 6.263 0 0 0-1.543 4.114v25.71c0 3.535 2.893 6.427 6.428 6.427h14.912L65.5 89.293c.579.45 1.286.707 1.993.707.45 0 .964-.128 1.414-.321 1.093-.514 1.8-1.671 1.8-2.892V75.261L84.5 89.055c.63.63 1.453.945 2.275.945.823 0 1.646-.315 2.276-.938a3.224 3.224 0 0 0 0-4.55z" fill="#857122"/></g><defs><clipPath id="clip0"><path fill="#fff" d="M0 0H90V90H0z"/></clipPath></defs></svg>