<svg width="90" height="90" fill="none" xmlns="http://www.w3.org/2000/svg"><g clip-path="url(#clip0)" fill="#857122"><path d="M5.897 19.692c3.274 7.614 8.8 15.145 16.535 18.392.883.368 1.885.643 2.915.873 2.06-3.071 4.423-5.563 7.191-7.605a36.14 36.14 0 0 1 7.44-4.193 20.99 20.99 0 0 0-2.318-1.407c-3.218-1.683-6.703-3.164-10.097-4.755 3.191.865 6.851 1.187 9.904 2.3 1.904.698 3.66 1.664 5.297 2.813 4.883-1.664 9.987-2.464 15.082-3.071-4.13-6.86-12.94-12.369-19.579-14.861-6.934-2.603-14.787-2.924-22.503-3.724C11.038 3.966 5.897 2.2 2.136.14 1.28-.33.37.453.664 1.4c1.849 5.912 2.787 12.607 5.233 18.29z"/><path d="M87.42 18.79c-8.699 4.727-18.677 5.306-28.452 6.428-4.773.552-9.5 1.233-13.997 2.594-.974.294-1.95.625-2.906.993-2.841 1.085-5.582 2.51-8.166 4.414-2.428 1.784-4.414 3.9-6.088 6.226-2.667 3.715-4.524 7.991-6.05 12.433-2.787 8.065-4.065 16.636-3.817 25.16.101 3.458.156 7.054 1.011 10.429.194.745.378 1.692.957 2.244.754.726 2.106-.019 1.802-1.076-2.188-7.458-.827-16.176 2.198-23.303 3.476-8.194 10.19-13.068 18.392-16.038 2.18-.791 4.405-1.48 6.668-2.134.046-.018.092-.018.137-.018.451 0 .644.662.175.874-2.667 1.204-5.315 2.418-7.835 3.733-12.341 6.438-17.73 21.427-13.104 21.427.377 0 .818-.1 1.324-.312 7.136-2.952 15.615-2.98 23.46-4.433 2.758-.506 5.443-1.195 7.963-2.244 10.005-4.175 17.16-12.34 21.418-22.162 3.172-7.33 4.405-15.983 6.805-23.598.313-.974-.377-1.811-1.223-1.811a1.264 1.264 0 0 0-.671.174z"/></g><defs><clipPath id="clip0"><path fill="#fff" d="M0 0H90V90H0z"/></clipPath></defs></svg>