<svg width="31" height="35" fill="none" xmlns="http://www.w3.org/2000/svg"><path fill-rule="evenodd" clip-rule="evenodd" d="M0 17.999h30v2H0v-2zm0-9h30v2H0v-2zm0-9h30v2H0v-2zM3.001 31.82l2.276-3.818h.714v6.997H5v-5l-2 3-.026.081L1 29.999v5H.011l-.011-7h.857l2.144 3.821zM13 28.999H9v2h4L12 32H9v1.999h4l-.014 1H8.004v-6.997h4.934l.062.997zm3-1v3h3v-3h1l.008 7H19V32h-3v2.999h-1.016l.016-7h1zm7 0v3h1c0-1.941 1.322-3 3-3 1.796 0 3.002 1.066 3.002 3.492 0 1.959-1.224 3.503-3.021 3.503-1.696 0-2.854-1.191-2.981-2.994h-1v2.999l-1.008-.121.008-6.879h1zm4 6c1.325 0 2-.9 2-1.999 0-2.121-.675-3.001-2-3.001S25 30.004 25 32c0 1.169.675 1.999 2 1.999z" fill="#399FA3"/></svg>