<svg width="18" height="15" fill="none" xmlns="http://www.w3.org/2000/svg"><path d="M5.59 12.411c0-.34-.12-.63-.362-.871a1.189 1.189 0 0 0-.871-.361c-.34 0-.63.12-.872.36s-.362.53-.361.872c.001.341.121.632.36.872s.53.36.873.361c.343 0 .634-.12.871-.361s.358-.532.361-.872h.001zm-3.7-4.93h3.698V5.014h-1.52a.4.4 0 0 0-.212.086L1.978 6.98a.696.696 0 0 0-.087.212v.29l-.001-.001zm12.328 4.93c0-.34-.12-.63-.361-.871a1.188 1.188 0 0 0-.872-.361c-.34 0-.631.12-.872.36-.24.24-.36.53-.36.872 0 .341.12.632.36.872s.53.36.872.361c.342 0 .633-.12.872-.361.24-.241.36-.532.36-.872h.001zm1.233-6.472V4.09a.297.297 0 0 0-.309-.308h-2.157V1.624a.3.3 0 0 0-.308-.308h-1.85a.296.296 0 0 0-.22.087.308.308 0 0 0-.088.221v2.158H8.363a.297.297 0 0 0-.308.308v1.85a.296.296 0 0 0 .308.307h2.157v2.158a.297.297 0 0 0 .309.308h1.849a.297.297 0 0 0 .308-.308V6.247h2.157c.09 0 .164-.029.222-.086a.299.299 0 0 0 .087-.222h-.001zM17.917.7v11.096a.592.592 0 0 1-.183.433.592.592 0 0 1-.433.183h-1.85c0 .68-.24 1.262-.722 1.744a2.37 2.37 0 0 1-1.743.722 2.38 2.38 0 0 1-1.743-.722 2.378 2.378 0 0 1-.723-1.744H6.822c0 .68-.24 1.262-.722 1.744a2.37 2.37 0 0 1-1.743.722 2.38 2.38 0 0 1-1.744-.722 2.369 2.369 0 0 1-.722-1.744H.658a.592.592 0 0 1-.433-.183.592.592 0 0 1-.183-.433c0-.167.061-.311.183-.433a.592.592 0 0 1 .433-.183V7.172c0-.167.042-.353.125-.559.083-.206.186-.37.309-.49l1.907-1.908c.122-.122.285-.225.49-.308a1.5 1.5 0 0 1 .56-.125h1.54V.7c0-.167.061-.311.183-.434a.584.584 0 0 1 .434-.182H17.3a.59.59 0 0 1 .433.182.59.59 0 0 1 .183.434h.001z" fill="#40B3B7"/></svg>