<svg width="20" height="23" fill="none" xmlns="http://www.w3.org/2000/svg"><path d="M17.875 19.61v.703H2.125v-.704c0-.233.189-.422.422-.422h.703V6.531c0-.466.378-.843.844-.843h3.094V3.155c0-.466.377-.843.843-.843h3.939c.466 0 .844.377.844.843v2.532h3.093c.466 0 .844.377.844.843v12.657h.703c.233 0 .422.188.422.421l-.001.002zM12.953 9.062h-1.406a.422.422 0 0 0-.422.421v1.407c0 .233.189.421.422.421h1.406a.422.422 0 0 0 .422-.421V9.484a.422.422 0 0 0-.422-.421v-.001zm-5.906 2.25h1.406a.422.422 0 0 0 .422-.422V9.484a.422.422 0 0 0-.422-.421H7.047a.422.422 0 0 0-.422.421v1.407c0 .233.189.421.422.421zm3.656 4.5H9.297a.422.422 0 0 0-.422.421v2.954h2.25v-2.954a.422.422 0 0 0-.422-.421zm2.25-3.376h-1.406a.422.422 0 0 0-.422.422v1.407c0 .233.189.421.422.421h1.406a.422.422 0 0 0 .422-.421v-1.407a.422.422 0 0 0-.422-.421v-.001zm-4.078.422a.422.422 0 0 0-.422-.421H7.047a.422.422 0 0 0-.422.421v1.407c0 .233.189.421.422.421h1.406a.422.422 0 0 0 .422-.421v-1.407zm-.352-7.171h.915v.914a.21.21 0 0 0 .21.21h.704a.21.21 0 0 0 .21-.21v-.915h.915a.21.21 0 0 0 .21-.21v-.704a.21.21 0 0 0-.21-.21h-.914v-.915a.21.21 0 0 0-.211-.21h-.704a.21.21 0 0 0-.21.21v.914h-.915a.21.21 0 0 0-.21.211v.704a.21.21 0 0 0 .21.21v.001z" fill="#40B3B7"/></svg>