<svg width="15" height="19" fill="none" xmlns="http://www.w3.org/2000/svg"><path fill-rule="evenodd" clip-rule="evenodd" d="M9 14c5 1.857 6 2.177 6 5H0c0-2.796 1.032-2.893 6-5v-.5c0-.262.085-.496.203-.711A4.488 4.488 0 0 1 3.049 8.99C3.032 8.991 3.018 9 3 9a1 1 0 0 1-1-1c0 .552 3.619-1 5-1 3.078 0 6 1.552 6 1a1 1 0 0 1-1 1c-.018 0-.032-.009-.049-.01a4.488 4.488 0 0 1-3.154 3.799c.118.215.203.449.203.711v.5zm3.275-6.945a.975.975 0 0 1 .673.687c-.099-.256-.343-.485-.673-.687zm-10.218.663a.985.985 0 0 1 .577-.644c-.287.19-.488.405-.577.644zm9.542-.996C10.427 6.249 8.82 6 8 6c-1.665 0-3.406.235-4.582.684l.012-.03C2.951 6.76 2.474 6.876 2 7l1-6s2.628-1 4.313-1C9.82 0 12 1 12 1l1 6s-.611-.216-1.474-.447c.027.055.047.113.073.169zM9 3H8V2H7v1H6v1h1v1h1V4h1V3z" fill="#40B3B7"/></svg>