<svg width="20" height="18" fill="none" xmlns="http://www.w3.org/2000/svg"><path d="M10 14.7c-.8 0-1.6-.1-2.3-.2-1.3 1.3-2.9 2.1-4.8 2.5-.3.1-.6.1-1 .1-.2 0-.3-.1-.4-.3 0-.2.1-.3.2-.4.7-.7 1.5-1.2 1.8-3.5C1.4 11.6 0 9.7 0 7.5 0 3.6 4.5.4 10 .4s10 3.2 10 7.1c0 4-4.5 7.2-10 7.2zM5.8 6.1c-.8 0-1.5.7-1.5 1.5S5 9 5.8 9s1.4-.6 1.4-1.4c0-.8-.7-1.5-1.4-1.5zm4.2 0c-.8 0-1.4.6-1.4 1.4 0 .8.6 1.5 1.4 1.5.8 0 1.4-.6 1.4-1.4 0-.8-.6-1.5-1.4-1.5zm4.3 0c-.8 0-1.4.6-1.4 1.4 0 .8.6 1.5 1.4 1.5.8 0 1.4-.6 1.4-1.4 0-.8-.6-1.5-1.4-1.5z" fill="#FFA601"/></svg>