<svg width="37" height="37" fill="none" xmlns="http://www.w3.org/2000/svg"><path d="M36.6 13.4v8.4c0 .3-.1.5-.2.6-.2.2-.3.2-.5.2h-2.3v11c0 .7-.2 1.3-.7 1.8-.4.5-1 .7-1.6.7H5.5c-.6 0-1.2-.3-1.6-.7-.4-.5-.7-1.1-.7-1.8v-11H.9c-.2 0-.4-.1-.5-.2-.2-.2-.2-.4-.2-.6v-8.4c0-.3.1-.4.2-.6.2-.2.3-.3.5-.3h10.4c-1.5 0-2.7-.6-3.7-1.7S6.1 8.2 6.1 6.6s.5-3 1.5-4.2C8.7 1.2 9.9.7 11.3.7c1.7 0 3 .7 4 2.1l3.1 4.4 3.1-4.4c.9-1.4 2.3-2.1 4-2.1 1.5 0 2.7.6 3.7 1.7 1.1 1.2 1.5 2.5 1.5 4.2 0 1.7-.5 3-1.5 4.2-1.1 1.2-2.3 1.7-3.7 1.7h10.4c.2 0 .4.1.5.3.1.1.2.3.2.6zM11.4 9.2H16l-3-4.3c-.4-.5-.9-.9-1.6-.9-.6 0-1.2.3-1.6.7-.4.5-.7 1.1-.7 1.8s.2 1.3.7 1.8c.4.6.9.9 1.6.9zm10.8 22.2V12.5h-7.6v18.9c0 .4.2.8.4 1 .3.2.6.4 1.1.4h4.5c.4 0 .8-.1 1.1-.4.3-.2.5-.5.5-1zm4.8-23c.4-.5.7-1.1.7-1.8s-.2-1.3-.7-1.8c-.4-.5-1-.7-1.6-.7-.7 0-1.2.3-1.6.8l-3 4.3h4.6c.6 0 1.2-.3 1.6-.8z" fill="#fff"/></svg>