<svg xmlns="http://www.w3.org/2000/svg" width="16" height="16" fill="none"><path fill="#333" d="M.58 4.768l6.827-2.73a.25.25 0 0 1 .186 0L15 5v4.896c0 .067.026.13.073.177l.417.417a1 1 0 0 1 .188 1.155l-.954 1.908a.25.25 0 0 1-.448 0l-.954-1.908a1 1 0 0 1 .188-1.155l.417-.417A.25.25 0 0 0 14 9.896V5.4L7.593 7.963a.25.25 0 0 1-.186 0L.58 5.233a.25.25 0 0 1 0-.465z"/><path fill="#333" d="M3 10.795V7.5l3.688 1.639a2 2 0 0 0 1.624 0L12 7.5v3.295a.25.25 0 0 1-.201.245l-.52.104a8 8 0 0 0-3.23 1.445l-.399.298a.25.25 0 0 1-.3 0l-.398-.298a8 8 0 0 0-3.231-1.445l-.52-.104A.25.25 0 0 1 3 10.795z"/></svg>