<svg xmlns="http://www.w3.org/2000/svg" width="80" height="16" fill="none"><path fill="#FFB401" d="M8 1l2.351 4.764 5.257.764-3.804 3.708.898 5.236L8 13l-4.702 2.472.898-5.236L.392 6.528l5.257-.764L8 1zm16 0l2.351 4.764 5.258.764-3.805 3.708.898 5.236L24 13l-4.702 2.472.898-5.236-3.805-3.708 5.258-.764L24 1zm16 0l2.351 4.764 5.258.764-3.805 3.708.898 5.236L40 13l-4.702 2.472.898-5.236-3.804-3.708 5.257-.764L40 1zm16 0l2.351 4.764 5.258.764-3.805 3.708.898 5.236L56 13l-4.702 2.472.898-5.236-3.804-3.708 5.257-.764L56 1zm16 0l2.351 4.764 5.258.764-3.805 3.708.898 5.236L72 13l-4.702 2.472.898-5.236-3.805-3.708 5.258-.764L72 1z"/></svg>