<svg width="22" height="22" fill="none" xmlns="http://www.w3.org/2000/svg"><path fill-rule="evenodd" clip-rule="evenodd" d="M18.22 12.516l.683 3.334-3.147 1.06-1.601 3.023-3.075-1.28-3.16 1.296-1.538-3.016-3.266-1.042.741-3.339-1.866-2.894 2.698-2.096.381-3.396 3.418.13 2.426-2.309 2.562 2.297 3.312-.147.531 3.393 2.623 2.083-1.722 2.903zm-6.118-4.925h-2.24v.225l.592 3.853h1.056l.592-3.853v-.225zM9.86 13.213l-.011 1.12s.548 1.14 1.096 1.14c.575 0 1.146-1.14 1.146-1.14l.018-1.12h-2.25.001z" fill="#40B3B7"/></svg>