<svg width="17" height="20" fill="none" xmlns="http://www.w3.org/2000/svg"><path fill-rule="evenodd" clip-rule="evenodd" d="M13.905 17.997H3.068c-.594 0-1.081-.428-1.081-.952V8.867C1.987 8.343 2.405 8 3 8h1V6c0-1.939 1.844-3.854 4-4 .087-.006.897-.002.987-.002C11.278 1.998 13 3.982 13 6v2h1c.595 0 .986.343.986.867v8.178c0 .524-.486.952-1.081.952zM7 12l1 .007V15l.02 1.014L9 16v-3.986l.99.007.01-.994S7.802 9.56 8 10c.182.406-1 1-1 1v1zm5-6c0-1.66-1.462-3-3-3H8C6.811 3 5 4.44 5 6v2h7V6z" fill="#40B3B7"/></svg>