<svg width="11" height="13" fill="none" xmlns="http://www.w3.org/2000/svg"><path fill-rule="evenodd" clip-rule="evenodd" d="M7.794 7.628l-.034-.015a5.263 5.263 0 0 0-.743-.269 6.319 6.319 0 0 0-.348-.088 5.29 5.29 0 0 0-.123-.023l-.027-.005c-.07-.014-.141-.025-.212-.036l-.02-.003-.003-.001-.02-.002c-.06-.01-.12-.017-.179-.024l-.209-.017a5.863 5.863 0 0 0-.773.002l-.074.006-.034.003-.087.008a4.613 4.613 0 0 0-.236.031l-.023.003a7.679 7.679 0 0 0-.667.146c-.084.024-.168.05-.251.078l-.055.02c-.17.06-.336.126-.5.2l-.044.021h-.001C1.228 8.558 0 10.464 0 12.532c0 .048.004.094.007.141l.014.328h10.957l.015-.324a2.31 2.31 0 0 0 .006-.145c0-2.101-1.257-4.024-3.205-4.904zM.538 12.474c.023-1.857 1.141-3.56 2.845-4.345l.055-.021.006-.006c.134-.06.272-.115.411-.163l.045-.015a5.68 5.68 0 0 1 .529-.148c.051-.01.103-.021.157-.03l.127-.023.021-.003c.076-.012.153-.023.23-.031l.176-.015c.23-.017.45-.019.717 0l.17.014.136.017.061.009c.065.009.129.02.193.032l.03.005.107.021c.174.037.346.083.515.14a4.6 4.6 0 0 1 .481.187l.014.006c1.742.785 2.874 2.494 2.897 4.368H.538v.001zm3.634-6.006c.041.016.082.031.124.045l.087.031.102.036c.32.099.655.15.995.152l.028.001c.154 0 .308-.012.46-.034l.084-.012a1.95 1.95 0 0 0 .243-.047l.092-.023a1.65 1.65 0 0 0 .218-.064l.074-.026c.053-.018.106-.036.159-.058l.061-.028.024-.011c.074-.032.146-.066.217-.103l.047-.027c.08-.045.161-.092.242-.146.042-.028.082-.06.122-.091l.138-.105a3.316 3.316 0 0 0 1.245-2.564l.002-.028C8.936 1.51 7.398 0 5.507 0 3.703 0 2.202 1.386 2.09 3.154l-.003.044c-.004.056-.008.112-.008.168a3.36 3.36 0 0 0 2.093 3.102zm-1.55-3.233l.003-.048C2.72 1.696 3.986.528 5.507.528c1.595 0 2.891 1.273 2.893 2.814l-.002.028a2.818 2.818 0 0 1-1.055 2.186l-.127.095a1.606 1.606 0 0 1-.295.19l-.039.023c-.058.031-.119.058-.182.086l-.071.033c-.041.017-.084.031-.127.046l-.088.031a.546.546 0 0 1-.052.019c-.033.01-.067.017-.1.025l-.107.027c-.023.006-.046.013-.067.017-.035.007-.072.012-.108.017l-.102.015-.077.011c-.09.009-.18.014-.271.015h-.026a2.95 2.95 0 0 1-.929-.154l-.101-.036c-.032-.011-.063-.021-.093-.034a2.834 2.834 0 0 1-1.765-2.615c0-.045.003-.089.006-.132z" fill="#757575"/></svg>