<svg width="13" height="15" fill="none" xmlns="http://www.w3.org/2000/svg"><path fill-rule="evenodd" clip-rule="evenodd" d="M11.902 7.726a5.31 5.31 0 0 1-.444 1.299c-.613 1.367-1.965 3.493-4.896 5.787a.904.904 0 0 1-1.099 0c-2.934-2.298-4.285-4.42-4.902-5.798a5.193 5.193 0 0 1-.401-1.11c-.033-.124-.042-.19-.042-.19a5.364 5.364 0 0 1-.079-1.613c.285-2.809 2.76-5.002 5.755-5.1.07-.003.143-.003.213-.003 3.307 0 5.998 2.537 6.004 5.654 0 .36-.036.721-.109 1.074zM5.821 1.703C3.197 1.788 1.032 3.71.78 6.17c-.049.476-.025.957.069 1.424 0 .006.004.012.004.017.003.014.012.06.03.135.082.34.2.67.355.985.59 1.314 1.88 3.333 4.696 5.539.027.02.057.026.076.026a.13.13 0 0 0 .076-.026c2.815-2.203 4.103-4.222 4.689-5.527.175-.362.306-.744.389-1.137.063-.322.097-.637.097-.952 0-2.792-2.46-5.049-5.44-4.951zm.186 7.941c-1.713 0-3.104-1.317-3.104-2.929 0-1.612 1.391-2.928 3.104-2.928S9.11 5.105 9.11 6.717c0 1.613-1.39 2.927-3.103 2.927zm0-5.152c-1.3 0-2.36 1-2.36 2.225 0 1.226 1.057 2.226 2.36 2.226s2.359-1 2.359-2.226c0-1.225-1.059-2.225-2.359-2.225z" fill="#474747"/></svg>