<svg width="12" height="15" fill="none" xmlns="http://www.w3.org/2000/svg"><path fill-rule="evenodd" clip-rule="evenodd" d="M11.879 7.724a5.595 5.595 0 0 1-.407 1.3c-.562 1.367-1.801 3.491-4.488 5.785a.775.775 0 0 1-1.008 0c-2.689-2.297-3.928-4.418-4.493-5.796a5.548 5.548 0 0 1-.368-1.111 5.87 5.87 0 0 1-.111-1.803C1.266 3.29 3.535 1.098 6.28 1c.064-.004.131-.004.195-.004 3.032 0 5.498 2.538 5.504 5.655 0 .36-.034.721-.1 1.073zM6.469 4a2.5 2.5 0 1 0 0 5 2.5 2.5 0 0 0 0-5z" fill="#40B3B7"/></svg>