<svg width="14" height="12" fill="none" xmlns="http://www.w3.org/2000/svg"><path d="M11.725 1.502C10.505.355 9.346 0 9.346 0L7.007 8.316h-.021L4.628 0s-1.16.343-2.379 1.502C.95 2.734-.169 4.622.021 7.618.171 9.986 1.85 12 1.85 12l3.248-.012S2.309 10.445 1.64 8.013c-.8-2.87.45-4.863 1.409-5.812.389-.356.959-.439 1.169.322l2.778 9.392h.01s2.049-6.959 2.778-9.392c.22-.761.79-.678 1.169-.322.959.949 2.209 2.942 1.408 5.813-.668 2.432-3.457 3.975-3.457 3.975l3.25.011s1.688-2.025 1.828-4.382c.17-2.996-.949-4.884-2.257-6.116z" fill="#40B3B7"/></svg>