<svg width="161" height="39" fill="none" xmlns="http://www.w3.org/2000/svg"><path fill-rule="evenodd" clip-rule="evenodd" d="M0 0h161v39H0V0z" fill="#FFB401"/><path fill-rule="evenodd" clip-rule="evenodd" d="M150.906 27.692c-.944 2.53-1.957 3.482-4.051 3.482-1.267 0-2.21-.325-3.108-.859l1.174-2.554c.46.279 1.036.488 1.496.488.599 0 .921-.186 1.22-.813l-4.834-12.49h3.706l2.809 8.474 2.693-8.474h3.637l-4.742 12.746zm-12.683-.302l-3.292-4.736-1.588 1.741v2.995h-3.499V14.946h3.499v5.108l4.42-5.108h4.028l-4.535 5.108 5.111 7.336h-4.144zm-15.445 0h-6.745V14.946h6.768c2.486 0 4.121 1.161 4.121 3.111 0 1.509-.898 2.345-1.957 2.809 1.496.464 2.417 1.393 2.417 3.134 0 2.113-1.749 3.39-4.604 3.39zm-.783-9.844h-2.509v2.391h2.463c.99 0 1.474-.534 1.474-1.253 0-.604-.415-1.138-1.428-1.138zm.161 4.62h-2.67v2.461h2.763c1.082 0 1.588-.511 1.588-1.254 0-.673-.483-1.207-1.681-1.207zm-12.521 3.877c-.852.952-2.026 1.579-3.73 1.579-2.325 0-4.235-1.347-4.235-3.854 0-2.716 2.049-3.97 4.972-3.97a8.699 8.699 0 0 1 3.016.511V20.1c0-1.463-.898-2.275-2.648-2.275-1.335 0-2.279.255-3.407.673l-.874-2.693c1.358-.604 2.693-.998 4.788-.998 1.911 0 3.292.51 4.167 1.393.92.928 1.335 2.298 1.335 3.97v7.22h-3.384v-1.347zm.069-3.668c-.599-.278-1.381-.464-2.233-.464-1.497 0-2.417.603-2.417 1.764 0 .952.782 1.509 1.91 1.509 1.635 0 2.74-.905 2.74-2.182v-.627zm-15.491 5.247c-1.865 0-3.016-.859-3.845-1.857v5.339h-3.499V14.946h3.499v1.788c.852-1.161 2.026-2.02 3.845-2.02 2.877 0 5.617 2.275 5.617 6.477 0 4.156-2.694 6.431-5.617 6.431zm-.898-9.913c-1.635 0-2.993 1.369-2.993 3.482 0 2.066 1.358 3.436 2.993 3.436 1.634 0 3.016-1.346 3.016-3.482 0-2.067-1.382-3.436-3.016-3.436zm-13.074.255h-4.213v9.426h-3.499V14.946H83.74V27.39h-3.499v-9.426zM63.3 27.668c-3.822 0-6.653-2.855-6.653-6.477 0-3.575 2.854-6.477 6.699-6.477 3.821 0 6.652 2.855 6.652 6.477 0 3.575-2.854 6.477-6.698 6.477zm0-9.913c-2.003 0-3.2 1.556-3.2 3.436 0 1.834 1.312 3.436 3.246 3.436 2.002 0 3.199-1.555 3.199-3.436 0-1.834-1.312-3.436-3.245-3.436zm-13.097-3.389h-6.354V27.39h-3.545V11.139h13.444V27.39h-3.545V14.366zm-14.847 11.05c-.806 1.138-2.256 2.252-4.489 2.252-2.417 0-4.535-1.253-4.535-3.761 0-2.461 2.095-3.853 5.133-3.853 1.635 0 2.763.208 3.891.51v-.51c0-2.392-1.45-3.622-3.868-3.622-1.427 0-2.601.394-3.683.952l-.414-.999c1.289-.603 2.555-1.021 4.166-1.021 1.589 0 2.855.441 3.707 1.3.782.789 1.197 1.88 1.197 3.343v7.383h-1.105v-1.974zm.023-3.807c-.99-.255-2.302-.534-3.983-.534-2.486 0-3.844 1.114-3.844 2.809 0 1.718 1.358 2.716 3.384 2.716 2.394 0 4.443-1.485 4.443-3.644v-1.347zm-13.811-1.834H11.255v7.615h-1.197V11.139h1.197v7.522h10.313v-7.522h1.197V27.39h-1.197v-7.615z" fill="#fff"/></svg>