<svg width="54" height="54" fill="none" xmlns="http://www.w3.org/2000/svg"><path d="M2 2h50v50H2V2z" fill="#F7931E"/><path d="M27.533 11c-4.7 0-8.4 3.7-8.4 8.4s3.7 8.4 8.4 8.4 8.4-3.7 8.4-8.4-3.7-8.4-8.4-8.4zm0 11.9c-1.9 0-3.5-1.6-3.5-3.5s1.6-3.5 3.5-3.5 3.5 1.6 3.5 3.5-1.5 3.5-3.5 3.5zm3 11.7c3.4-.7 5.5-2.3 5.6-2.4 1-.8 1.1-2.3.3-3.2-.8-1-2.3-1.1-3.2-.3 0 0-2.2 1.7-5.7 1.7s-5.8-1.7-5.8-1.7c-1-.8-2.4-.7-3.2.3-.8 1-.7 2.4.3 3.2.1.1 2.3 1.7 5.7 2.4l-4.9 5.1c-.9.9-.9 2.4.1 3.3.5.5 1 .7 1.6.7.6 0 1.2-.2 1.7-.7l4.5-4.8 5 4.8c.9.9 2.4.9 3.3 0 .9-.9.9-2.4 0-3.3l-5.3-5.1z" fill="#fff"/></svg>