<svg width="15" height="23" fill="none" xmlns="http://www.w3.org/2000/svg"><path fill-rule="evenodd" clip-rule="evenodd" d="M13.402 14.247a3.944 3.944 0 0 1-.653.365c-1.047.466-2.098.923-3.148 1.383l-.242.103c.043.062.074.113.11.16 1.033 1.302 2.068 2.603 3.097 3.908.163.207.309.429.45.651.573.902-.107 1.876-.827 2.095-.075.023-.146.058-.22.088h-.583c-.488-.119-.82-.436-1.131-.807-.991-1.18-2-2.344-3.003-3.514-.08-.093-.162-.184-.245-.275-.09.101-.16.178-.227.256-1.003 1.17-2.013 2.334-3.004 3.513-.316.377-.647.707-1.146.827h-.583c-.073-.03-.144-.065-.22-.088-.72-.217-1.414-1.198-.823-2.092.348-.526.744-1.024 1.134-1.522.832-1.061 1.674-2.114 2.53-3.192a19.091 19.091 0 0 1-.252-.111C3.236 15.47 2.054 14.95.88 14.412c-.466-.213-.763-.577-.856-1.091-.16-.879.47-1.742 1.374-1.802.28-.017.585.097.855.206.635.257 1.239.597 1.886.819 2.255.776 4.473.635 6.637-.355.38-.174.76-.356 1.136-.541.804-.401 1.606.109 1.899.63.382.678.216 1.532-.41 1.969zm-5.428-3.603c-3.034.523-5.86-1.459-6.354-4.46C1.134 3.239 3.31.394 6.314.044c.054-.006.106-.03.159-.044h1.07c.353.078.712.137 1.058.239 2.395.706 3.998 2.981 3.848 5.446-.15 2.467-2.016 4.534-4.475 4.959zm-.94-7.961c-1.52-.002-2.745 1.189-2.75 2.675-.003 1.496 1.228 2.697 2.759 2.691 1.477-.006 2.69-1.218 2.689-2.687-.002-1.466-1.22-2.676-2.697-2.679z" fill="#fff"/></svg>