<svg width="28" height="19" fill="none" xmlns="http://www.w3.org/2000/svg"><path d="M1.436 19h8.73c.792 0 1.436-.494 1.436-1.104v-6.711c0-.61-.644-1.104-1.436-1.104H5.987c.055-1.757.586-3.163 1.591-4.22.793-.835 1.993-1.526 3.599-2.072.738-.25 1.056-.92.712-1.481L10.855.63c-.333-.539-1.157-.775-1.87-.539-1.9.632-3.506 1.431-4.815 2.402C2.573 3.68 1.479 5.017.887 6.51.296 8.001 0 10.037 0 12.62v5.277C0 18.506.643 19 1.436 19zM24.955.096c-1.878.629-3.475 1.428-4.793 2.397-1.61 1.186-2.71 2.52-3.302 4-.592 1.482-.888 3.524-.888 6.127v5.276c0 .61.644 1.104 1.436 1.104h8.73c.793 0 1.436-.494 1.436-1.104v-6.711c0-.61-.643-1.104-1.436-1.104H21.96c.054-1.757.586-3.163 1.59-4.22.793-.835 1.994-1.526 3.599-2.072.738-.25 1.057-.92.712-1.481L26.831.635c-.334-.54-1.164-.778-1.876-.54z" fill="#D9D9D9"/></svg>