<svg width="19" height="20" fill="none" xmlns="http://www.w3.org/2000/svg"><path d="M18.22 3.608C17.678 2.036 16.573.88 15.187.435c-2.632-.844-4.797.241-5.624.76C8.736.676 6.571-.408 3.94.436 2.553.88 1.447 2.037.906 3.61c-.712 2.068-.353 4.453.958 6.38.876 1.287 1.448 2.74 1.655 4.2l.035.259c.198 1.54.49 2.777.869 3.675.453 1.076 1.038 1.658 1.738 1.728.743.074 1.359-.543 1.832-1.835.331-.903.592-2.114.735-3.408.08-.724.267-1.31.54-1.694a.36.36 0 0 1 .59 0c.273.384.46.97.54 1.694.143 1.294.404 2.505.735 3.408.448 1.222 1.024 1.84 1.713 1.84.04 0 .079-.001.119-.005.7-.07 1.285-.652 1.738-1.728.378-.898.671-2.134.87-3.675.01-.085.022-.168.033-.25.206-1.463.78-2.92 1.659-4.213 1.31-1.927 1.666-4.311.955-6.377v-.001z" fill="#40B3B7"/></svg>