<svg width="21" height="17" fill="none" xmlns="http://www.w3.org/2000/svg"><path fill-rule="evenodd" clip-rule="evenodd" d="M0 15.122c2.21.152 4.154-.44 5.972-1.823-1.908-.207-3.143-1.199-3.835-2.999h1.695l.031-.09C1.908 9.531.835 8.173.692 6.063c.497.15.941.287 1.389.413.117.032.244.025.395.038C.654 4.616.212 2.424 1.333.862 3.557 3.522 6.357 5.02 9.782 5.28c0-.53-.054-1.032.01-1.519.221-1.689 1.128-2.876 2.684-3.47 1.552-.594 2.973-.265 4.206.863.177.161.323.24.553.152.743-.28 1.49-.55 2.253-.83a4.239 4.239 0 0 1-1.634 2.133l.042.101 2.114-.583a5.96 5.96 0 0 1-1.72 1.87c-.236.163-.299.34-.305.616-.084 4.241-1.696 7.713-5.071 10.235-2.141 1.6-4.598 2.193-7.228 2.09-1.859-.074-3.595-.597-5.214-1.529-.159-.093-.315-.19-.472-.287z" fill="#fff"/></svg>