<svg width="21" height="15" fill="none" xmlns="http://www.w3.org/2000/svg"><path fill-rule="evenodd" clip-rule="evenodd" d="M7.055 1.46C7.685.682 8.402.186 9.265.081c.835-.1 1.686-.078 2.53-.08.315 0 .537.233.64.553.083.26.15.542.151.815.006.841-.043 1.682-.031 2.523.01.748.068 1.498.114 2.244.008.136.037.296.11.396.136.186.289.405.476.48.256.106.505-.059.63-.33.296-.646.537-1.326.858-1.954A101.11 101.11 0 0 1 16.805.9c.11-.195.41-.338.631-.357 1.049-.095 2.073.097 3.07.455.514.185.617.374.349.901a66.298 66.298 0 0 1-1.73 3.114c-.328.566-.709 1.095-1.06 1.646-.12.189-.228.384-.325.585-.308.638-.235.811.237 1.307.837.881 1.654 1.79 2.438 2.73.253.304.472.725.535 1.125.137.87-.494 1.565-1.383 1.594-.765.023-1.535.04-2.297-.014-.267-.019-.566-.204-.776-.407-.688-.668-1.341-1.384-2.014-2.074-.126-.128-.276-.229-.42-.33-.976-.679-2.165.034-2.22 1.325-.011.29-.018.587-.073.87-.093.475-.291.616-.726.637-2.13.106-3.887-.8-5.407-2.41C3.397 9.226 1.78 6.406.637 3.227.45 2.707.251 2.192.072 1.67-.11 1.138.052.836.552.815c.88-.032 1.76-.05 2.641-.053.37-.003.615.25.8.575.622 1.1 1.228 2.21 1.86 3.301.384.664.78 1.321 1.218 1.94.151.213.471.45.664.405.186-.043.398-.414.443-.673.132-.785.207-1.583.268-2.379.037-.48.01-.968.008-1.452-.003-.783-.315-1.092-1.109-1.065-.076.003-.152.023-.29.046z" fill="#fff"/></svg>