<svg width="344" height="91" viewBox="0 0 344 91" fill="none" xmlns="http://www.w3.org/2000/svg">
<path d="M337.511 53.6692C335.615 53.6692 334.117 52.9761 332.919 51.6888C331.721 50.3025 331.122 48.6191 331.122 46.4407C331.122 44.3613 331.721 42.5789 332.919 41.1926C334.117 39.8063 335.615 39.1132 337.511 39.1132C339.408 39.1132 341.005 39.8063 342.203 41.1926C343.401 42.5789 344 44.3613 344 46.4407C344 48.6191 343.401 50.4015 342.203 51.6888C341.005 52.9761 339.408 53.6692 337.511 53.6692Z" fill="white"/>
<path d="M6.38886 53.6692C4.49216 53.6692 2.99478 52.9761 1.79687 51.6888C0.598954 50.3025 0 48.6191 0 46.4407C0 44.3613 0.598954 42.5789 1.79687 41.1926C2.99478 39.8063 4.49216 39.1132 6.38886 39.1132C8.28555 39.1132 9.88276 39.8063 11.0807 41.1926C12.2786 42.5789 12.8775 44.3613 12.8775 46.4407C12.8775 48.6191 12.2786 50.4015 11.0807 51.6888C9.88276 52.9761 8.38537 53.6692 6.38886 53.6692Z" fill="white"/>
<path d="M66.9832 12.9717C66.9832 14.8531 66.3842 16.5365 65.1863 18.1208C63.9884 19.7051 62.491 20.3983 60.5943 20.3983C57.0006 20.3983 55.2037 18.2198 55.2037 13.9619C55.2037 12.0805 55.4034 10.6942 55.9025 9.70403C56.4016 8.71382 57.3999 7.82263 58.9971 7.12949C57.3999 5.24809 54.7046 4.35691 50.9112 4.35691C46.9182 4.35691 43.7238 5.84222 41.4278 8.71382C40.8288 9.50598 40.2299 10.4962 39.7307 11.6844C39.2316 12.8727 38.9321 14.7541 38.6326 17.2296C38.3332 19.7051 38.1335 23.0718 37.9339 27.3297C37.7342 31.5876 37.7342 37.1328 37.7342 43.8662C37.7342 51.6888 37.834 57.9271 37.9339 62.5811C38.0337 67.235 38.2333 70.7998 38.433 73.3743C38.6326 75.9489 38.9321 77.7312 39.3314 78.7214C39.7307 79.8107 40.13 80.6028 40.5293 81.296C41.9269 83.1774 43.3245 84.4646 44.8218 85.2568C46.3192 86.049 48.3157 86.4451 50.9112 86.4451C54.0058 86.4451 56.5015 85.7519 58.3982 84.4646C60.2949 83.0783 61.5926 81.0979 62.3912 78.5234L65.4858 79.8107C64.2879 83.8705 62.491 86.7421 59.9954 88.4255C57.4997 90.1088 54.2055 91 50.2124 91C46.5189 91 43.2246 90.3069 40.3297 89.0196C37.4347 87.6333 35.0389 85.7519 33.1422 83.3754C32.144 82.0881 31.2455 80.7019 30.5467 79.1175C29.848 77.5332 29.249 75.4538 28.8497 72.7802C28.4504 70.1066 28.1509 66.7399 27.9513 62.5811C27.7516 58.5212 27.6518 53.2731 27.6518 46.8368C27.6518 40.6975 27.7516 35.5484 27.8514 31.4886C27.9513 27.4287 28.2507 24.062 28.5502 21.2894C28.8497 18.6159 29.3488 16.3384 30.0476 14.6551C30.6466 12.8727 31.545 11.2884 32.4434 9.605C34.3401 6.63438 36.7359 4.35691 39.7307 2.57454C42.7255 0.891185 46.4191 0 50.7116 0C53.2072 0 55.5032 0.297062 57.4997 0.990207C59.4963 1.68335 61.1933 2.57454 62.6907 3.76278C64.0882 4.95103 65.1863 6.33732 65.9849 7.92165C66.6837 9.50598 66.9832 11.1893 66.9832 12.9717Z" fill="white"/>
<path d="M70.3772 85.3558H71.9744C72.8729 85.3558 73.4718 85.2568 73.7713 85.0588C74.0708 84.8607 74.3703 84.3656 74.5699 83.6725C74.6697 83.3754 74.6697 82.4842 74.7696 80.8999C74.8694 79.3156 74.8694 77.2361 74.9692 74.8596C75.0691 72.3841 75.0691 69.7106 75.0691 66.6409C75.0691 63.6703 75.1689 60.5016 75.1689 57.432C75.1689 54.2633 75.1689 51.2927 75.1689 48.3221C75.1689 45.4505 75.1689 42.7769 75.1689 40.4995C75.1689 37.4298 75.1689 34.0631 75.1689 30.3994C75.1689 26.7356 75.0691 23.2699 75.0691 20.0022C75.0691 16.7345 74.9692 13.8629 74.8694 11.4864C74.7696 9.10991 74.6697 7.72362 74.5699 7.32754C74.3703 6.63439 74.0708 6.13929 73.7713 5.84223C73.4718 5.54516 72.8729 5.44614 71.9744 5.44614H70.3772V1.08923H89.3441V5.44614H87.3476C86.549 5.44614 85.9501 5.54516 85.5508 5.84223C85.2513 6.13929 84.9518 6.53537 84.6523 7.32754C84.5525 7.72362 84.4527 8.91187 84.3529 10.7933C84.253 12.6747 84.253 15.0511 84.1532 17.8237C84.0534 20.5963 84.0534 23.5669 84.0534 26.8346C84.0534 30.1023 84.0534 33.1719 84.0534 36.2416H103.42C103.42 33.271 103.42 30.1023 103.42 26.8346C103.42 23.5669 103.32 20.5963 103.32 17.8237C103.32 15.0511 103.22 12.6747 103.12 10.7933C103.02 8.91187 102.92 7.72362 102.92 7.32754C102.621 6.63439 102.322 6.13929 102.022 5.84223C101.723 5.54516 101.124 5.44614 100.225 5.44614H98.2287V1.08923H117.196V5.44614H115.598C114.7 5.44614 114.101 5.54516 113.801 5.84223C113.502 6.13929 113.203 6.53537 113.003 7.32754C112.903 7.72362 112.803 9.10991 112.703 11.4864C112.604 13.8629 112.504 16.7345 112.504 20.0022C112.404 23.2699 112.404 26.7356 112.404 30.3994C112.404 34.0631 112.404 37.4298 112.404 40.4995C112.404 42.7769 112.404 45.3515 112.404 48.3221C112.404 51.2927 112.404 54.3624 112.404 57.432C112.404 60.6007 112.504 63.6703 112.504 66.6409C112.504 69.6115 112.604 72.3841 112.604 74.8596C112.703 77.3352 112.703 79.3156 112.803 80.8999C112.903 82.4842 112.903 83.4744 113.003 83.6725C113.203 84.3656 113.502 84.8607 113.801 85.0588C114.101 85.2568 114.7 85.3558 115.598 85.3558H117.196V89.8118H98.2287V85.3558H100.225C101.024 85.3558 101.623 85.2568 102.022 85.0588C102.322 84.8607 102.621 84.3656 102.92 83.6725C103.02 83.3754 103.02 82.4842 103.12 80.8999C103.22 79.3156 103.22 77.2361 103.22 74.8596C103.22 72.3841 103.32 69.7106 103.32 66.6409C103.32 63.6703 103.42 60.5016 103.42 57.432C103.42 54.2633 103.42 51.2927 103.42 48.3221C103.42 45.4505 103.42 42.7769 103.42 40.4995H84.0534C84.0534 42.7769 84.0534 45.3515 84.0534 48.3221C84.0534 51.2927 84.0534 54.3624 84.0534 57.432C84.0534 60.6007 84.1532 63.6703 84.1532 66.6409C84.1532 69.6115 84.253 72.3841 84.253 74.8596C84.253 77.3352 84.3529 79.3156 84.3529 80.8999C84.4527 82.4842 84.4527 83.4744 84.5525 83.6725C84.852 84.3656 85.0516 84.8607 85.4509 85.0588C85.7504 85.2568 86.3494 85.3558 87.2478 85.3558H89.2443V89.8118H70.2774V85.3558H70.3772Z" fill="white"/>
<path d="M197.655 1.08922C200.351 1.08922 202.746 1.4853 204.743 2.17844C206.739 2.87159 208.536 4.15886 210.034 5.84221C211.531 7.62458 212.629 9.60499 213.228 11.9815C213.827 14.358 214.226 17.5266 214.226 21.5865C214.226 23.4679 214.127 25.0522 214.027 26.5375C213.927 28.0228 213.627 29.3101 213.328 30.3993C213.028 31.5876 212.629 32.5778 212.13 33.568C211.631 34.4592 211.032 35.4494 210.333 36.3406C208.836 38.222 206.939 39.6083 204.643 40.4004C202.347 41.2916 199.752 41.6877 196.857 41.6877H188.771C188.771 48.025 188.771 53.4711 188.771 57.8281C188.771 62.284 188.871 65.9478 188.871 68.9184C188.97 71.889 188.97 74.2655 189.07 75.9488C189.17 77.7312 189.27 79.0185 189.37 80.0087C189.47 80.9989 189.669 81.692 189.769 82.1871C189.969 82.6823 190.069 82.9793 190.268 83.3754C190.667 84.0685 191.167 84.5636 191.766 84.8607C192.364 85.1578 192.963 85.2568 193.662 85.2568H195.659V89.7127H174.895V85.2568H175.893C176.592 85.2568 177.191 85.1578 177.69 84.9597C178.189 84.7617 178.489 84.3656 178.888 83.7715C179.187 83.3754 179.387 82.8803 179.487 82.2862C179.587 81.692 179.687 80.6028 179.786 79.2165C179.886 77.7312 179.886 75.7508 179.886 73.1763C179.886 70.6017 179.886 67.136 179.886 62.6801C179.886 55.0555 179.886 48.4211 179.886 42.8759C179.886 37.3308 179.886 32.4788 179.886 28.4189C179.886 22.8738 179.786 18.5169 179.687 15.3482C179.587 12.2786 179.287 9.90206 178.988 8.41675C178.589 6.93144 178.089 6.04025 177.49 5.74319C176.891 5.44613 175.993 5.24808 174.895 5.24808V0.891174H197.655V1.08922ZM192.963 5.3471C191.666 5.3471 190.667 6.04025 190.069 7.52556C189.769 8.02066 189.569 8.71381 189.47 9.40695C189.27 10.1991 189.17 11.5854 189.07 13.5658C188.97 15.5462 188.871 18.4178 188.871 22.1806C188.871 25.8444 188.871 30.8944 188.871 37.1327H194.76C198.354 37.1327 200.85 35.8455 202.347 33.37C202.946 32.3797 203.445 31.0925 203.745 29.5082C204.044 27.9238 204.144 25.6463 204.144 22.6757C204.144 20.5963 204.144 18.7149 204.044 17.1306C203.944 15.5462 203.844 14.259 203.645 13.0707C203.445 11.9815 203.246 10.9913 202.946 10.1991C202.647 9.40695 202.347 8.81283 201.948 8.31772C201.149 7.2285 200.151 6.43633 198.953 5.94123C197.755 5.44613 196.358 5.24808 194.86 5.24808H192.963V5.3471Z" fill="white"/>
<path d="M258.649 8.41675C256.153 13.7639 253.857 19.21 251.761 24.7552C249.665 30.3003 247.369 36.1425 244.973 42.2818C247.369 48.7182 249.864 55.3526 252.559 62.086C255.255 68.9184 258.15 75.6518 261.344 82.4842C261.943 83.7715 262.542 84.5637 262.842 84.8607C263.241 85.1578 263.84 85.2568 264.638 85.2568H266.136V89.7127H245.572V85.2568H247.369C248.367 85.2568 249.066 85.1578 249.365 84.8607C249.764 84.5637 249.964 84.1676 249.964 83.4744C249.964 81.197 246.171 70.1066 238.584 50.3025C234.79 60.2046 231.896 67.9282 230.099 73.4733C228.302 78.9195 227.304 82.2862 227.304 83.4744C227.304 84.0686 227.403 84.5637 227.703 84.8607C228.002 85.1578 228.501 85.2568 229.4 85.2568H231.197V89.7127H216.722V85.2568H217.521C218.419 85.2568 219.118 85.0588 219.517 84.7617C219.916 84.4646 220.416 83.6725 221.015 82.4842C221.114 82.3852 221.414 81.6921 221.913 80.4048C222.512 79.1175 223.211 77.4342 224.009 75.4538C224.908 73.4733 225.806 71.0968 226.904 68.5223C228.002 65.9478 229.1 63.2742 230.198 60.5016C231.297 57.729 232.395 54.9565 233.493 52.2829C234.591 49.5103 235.489 47.0348 236.388 44.7573C233.193 36.8357 230.498 29.9042 228.102 23.864C225.706 17.8237 223.51 12.6746 221.414 8.31773C220.915 7.22851 220.416 6.43634 219.916 6.04026C219.417 5.54516 218.718 5.34711 217.92 5.34711H216.922V0.990204H237.386V5.34711H235.589C234.491 5.34711 233.792 5.44613 233.393 5.7432C232.994 6.04026 232.794 6.53536 232.794 7.12948C232.794 8.11969 233.593 11.0903 235.09 15.9423C236.687 20.8934 239.183 27.9238 242.677 37.1327C246.171 27.9238 248.666 20.8934 250.064 16.0413C251.561 11.0903 252.26 8.11969 252.26 7.12948C252.26 5.94124 251.461 5.34711 249.864 5.34711H247.868V0.990204H263.84V5.34711H262.342C261.344 5.34711 260.546 5.54515 260.146 5.84222C259.747 6.2383 259.248 7.12949 258.649 8.41675Z" fill="white"/>
<path d="M316.248 63.7693C316.248 67.7301 315.749 71.2949 314.851 74.4636C313.952 77.6322 312.555 80.4048 310.858 82.6823C309.061 84.9597 306.965 86.6431 304.469 87.9304C301.973 89.2176 299.178 89.8118 296.084 89.8118H268.831V85.3558H269.829C270.428 85.3558 270.927 85.2568 271.427 85.0588C271.926 84.8607 272.225 84.2666 272.525 83.4744C272.824 82.6823 273.024 81.395 273.223 79.6126C273.423 77.8303 273.523 75.5528 273.623 72.4831C273.723 69.5125 273.822 65.6507 273.822 61.0958C273.822 56.5408 273.822 50.9957 273.822 44.5593C273.822 37.1328 273.822 31.0925 273.723 26.3395C273.623 21.5865 273.523 17.8237 273.423 15.0511C273.323 12.2786 273.124 10.2982 273.024 9.10991C272.924 7.92166 272.824 7.12949 272.724 6.83243C272.425 5.94125 271.427 5.44614 269.73 5.44614H268.731V1.08923H291.192C296.583 1.08923 300.775 2.77258 303.57 6.23831C306.366 9.70403 307.763 14.7541 307.763 21.5865C307.763 25.0522 307.164 28.1219 305.966 30.6964C304.768 33.37 303.271 35.4494 301.374 37.0337C305.467 37.8259 308.861 39.7073 311.357 42.6779C312.255 43.7671 313.054 44.8564 313.653 46.0446C314.252 47.2329 314.751 48.5201 315.15 50.1045C315.55 51.6888 315.849 53.4712 315.949 55.6496C316.149 57.9271 316.248 60.6007 316.248 63.7693ZM286.4 5.34712C285.802 5.34712 285.302 5.44614 284.903 5.7432C284.504 6.04027 284.104 6.53537 283.805 7.32754C283.506 8.02068 283.306 9.10991 283.106 10.3972C282.907 11.6844 282.807 13.3678 282.807 15.4472C282.707 17.7247 282.607 19.6061 282.607 21.1904C282.607 22.7748 282.507 24.3591 282.507 25.8444C282.507 27.3297 282.507 28.914 282.507 30.4984C282.507 32.0827 282.507 33.9641 282.507 36.0435H289.196C290.593 36.0435 291.791 35.7465 292.789 35.1523C293.887 34.5582 294.786 33.7661 295.485 32.7758C296.283 31.7856 296.982 30.3993 297.281 28.716C297.681 27.0326 297.88 24.7552 297.88 21.7846C297.88 19.9032 297.88 18.3188 297.781 16.9325C297.681 15.5463 297.581 14.457 297.381 13.4668C297.182 12.4766 296.982 11.6844 296.683 10.9913C296.383 10.2982 296.084 9.70403 295.684 9.10991C294.886 7.92166 293.887 6.93145 292.689 6.23831C291.492 5.54516 289.994 5.2481 288.397 5.2481H286.4V5.34712ZM282.407 40.3014C282.507 44.1632 282.607 47.926 282.607 51.5898C282.607 55.2535 282.607 59.0163 282.607 62.6801V77.6322C282.607 80.4048 282.807 82.3852 283.206 83.4744C283.605 84.6627 284.604 85.2568 286.301 85.2568H293.089C295.385 85.2568 297.381 84.8607 299.178 83.9695C300.975 83.1774 302.373 81.8901 303.471 80.1077C303.97 79.5136 304.269 78.7214 304.669 77.9293C304.968 77.1371 305.268 76.0479 305.467 74.6616C305.667 73.2753 305.867 71.691 305.966 69.7106C306.066 67.7301 306.166 65.3536 306.166 62.482C306.166 59.6104 306.066 57.1349 305.966 55.2535C305.767 53.2731 305.567 51.6888 305.268 50.3025C304.968 49.0152 304.569 47.926 304.169 46.9358C303.67 46.0446 303.171 45.1534 302.472 44.4603C300.176 41.6877 297.082 40.3014 293.089 40.3014H282.407Z" fill="white"/>
<path d="M172 55.7486C171.8 53.5702 171.601 51.6888 171.201 50.2035C170.802 48.6192 170.303 47.3319 169.704 46.1436C169.105 44.9554 168.306 43.8662 167.408 42.7769C164.912 39.8063 163.016 37.8259 158.923 36.6377C155.728 35.8455 146.445 36.0435 145.047 36.0435H138.359C138.359 33.9641 138.359 32.0827 138.359 30.4984C138.359 28.914 138.359 27.4287 138.359 25.8444C138.359 24.3591 138.458 22.7748 138.458 21.1904C138.458 19.6061 138.558 17.6257 138.658 15.4472C138.758 13.3678 138.858 11.6844 138.958 10.3972C139.157 9.10991 139.357 8.02068 139.656 7.32754C139.956 6.63439 140.255 6.04027 140.754 5.7432C141.154 5.44614 141.653 5.34712 142.252 5.34712H144.149C144.248 5.34712 145.446 5.34712 146.844 5.34712C146.844 5.34712 149.439 5.34712 150.138 5.34712C151.835 5.44614 152.634 7.32754 152.634 10.9913H156.727V1.08923H124.583V5.44614H125.581C127.378 5.44614 128.376 5.94125 128.576 6.83243C128.676 7.12949 128.775 7.92166 128.875 9.10991C128.975 10.2982 129.175 12.2786 129.275 15.0511C129.374 17.8237 129.474 21.5865 129.574 26.3395C129.674 31.0925 129.674 37.1328 129.674 44.5593C129.674 50.9957 129.674 56.5408 129.674 61.0958C129.674 65.6507 129.574 69.4135 129.474 72.4831C129.374 75.4538 129.275 77.8303 129.075 79.6126C128.875 81.395 128.676 82.5833 128.376 83.4744C128.077 84.2666 127.677 84.8607 127.278 85.0588C126.779 85.2568 126.28 85.3558 125.681 85.3558H124.683V89.8118H152.035C155.129 89.8118 157.925 89.2176 160.42 87.9304C162.916 86.6431 165.012 84.9597 166.809 82.6823C168.606 80.4048 169.904 77.7312 170.802 74.4636C171.701 71.2949 172.2 67.7301 172.2 63.7693C172.299 60.6007 172.2 57.9271 172 55.7486ZM162.017 69.8096C161.918 71.79 161.718 73.3743 161.518 74.7606C161.319 76.1469 161.019 77.2361 160.72 78.0283C160.42 78.8205 160.021 79.6126 159.522 80.2067C158.424 81.9891 157.026 83.1774 155.229 84.0686C153.432 84.8607 151.436 85.3558 149.14 85.3558H142.352C140.655 85.3558 139.656 84.7617 139.257 83.5735C138.858 82.3852 138.658 80.5038 138.658 77.7312V62.7791C138.658 59.0163 138.658 55.3526 138.658 51.6888C138.658 48.025 138.558 44.2622 138.458 40.4004H149.04C153.033 40.4004 156.228 41.7867 158.424 44.5593C159.023 45.3515 159.622 46.1436 160.121 47.0348C160.62 47.926 160.919 49.0152 161.219 50.4015C161.518 51.6888 161.718 53.3721 161.918 55.3526C162.117 57.333 162.117 59.7095 162.117 62.5811C162.217 65.3537 162.117 67.8292 162.017 69.8096Z" fill="white"/>
</svg>
