<svg width="30" height="28" viewBox="0 0 30 28" fill="none" xmlns="http://www.w3.org/2000/svg">
<path d="M29.5839 3.01446L26.9001 0.404999C26.623 0.135199 26.2587 0 25.895 0C25.5306 0 25.1663 0.134601 24.8898 0.404401L22.743 2.48862L27.4371 7.0507L29.5839 4.96708C30.1387 4.42748 30.1387 3.55227 29.5839 3.01446Z" fill="white"/>
<path d="M8.80823 16.0319L13.5023 20.5945L26.4326 8.02819L21.7385 3.46552L8.80823 16.0319Z" fill="white"/>
<path d="M7.79507 17.0076L6.79297 22.543L12.4892 21.5696L7.79507 17.0076Z" fill="white"/>
<path d="M20.7714 25.0089H3.07267V7.77696H15.563L18.6412 4.78583H1.98701C0.893968 4.78583 0 5.65625 0 6.72049V26.0659C0 27.1296 0.893968 28 1.98701 28H21.8564C22.9483 28 23.8422 27.1296 23.8422 26.0659V12.2343L20.7702 15.2207L20.7714 25.0089Z" fill="white"/>
</svg>
