<svg width="22" height="22" fill="none" xmlns="http://www.w3.org/2000/svg"><path d="M19.422 1.719H18.39V0h-1.72v1.719H5.329V0H3.61v1.719H2.58A2.581 2.581 0 0 0 0 4.297v15.125A2.581 2.581 0 0 0 2.578 22h16.844A2.581 2.581 0 0 0 22 19.422V4.297a2.581 2.581 0 0 0-2.578-2.578zm.86 17.703a.86.86 0 0 1-.86.86H2.578a.86.86 0 0 1-.86-.86V8.078h18.563v11.344zm0-13.063H1.718V4.297a.86.86 0 0 1 .86-.86h1.03v1.72h1.72v-1.72h11.343v1.72h1.719v-1.72h1.03a.86.86 0 0 1 .86.86v2.062z" fill="#FF473A"/><path d="M4.984 9.883H3.266v1.719h1.718v-1.72zm3.438 0H6.703v1.719h1.719v-1.72zm3.437 0h-1.718v1.719h1.718v-1.72zm3.438 0h-1.719v1.719h1.719v-1.72zm3.437 0h-1.718v1.719h1.718v-1.72zM4.984 13.32H3.266v1.72h1.718v-1.72zm3.438 0H6.703v1.72h1.719v-1.72zm3.437 0h-1.718v1.72h1.718v-1.72zm3.438 0h-1.719v1.72h1.719v-1.72zM4.984 16.758H3.266v1.719h1.718v-1.72zm3.438 0H6.703v1.719h1.719v-1.72zm3.437 0h-1.718v1.719h1.718v-1.72zm3.438 0h-1.719v1.719h1.719v-1.72zm3.437-3.438h-1.718v1.72h1.718v-1.72z" fill="#FF473A"/></svg>