<svg width="82" height="82" viewBox="0 0 82 82" fill="none" xmlns="http://www.w3.org/2000/svg">
<path d="M26.7908 29.1059L26.4396 29.233L31.1546 30.2197C34.9949 31.0261 39.1154 31.4333 43.3958 31.4333C45.603 31.4333 47.7651 31.3185 49.8697 31.104C53.475 30.7787 56.7905 30.1787 59.7576 29.3724L60.1307 29.2959L60.0842 29.2781C69.4035 26.6746 75.1667 22.0621 75.1667 17.7667C75.1667 11.7205 63.4093 5.46667 43.7334 5.46667C24.0575 5.46667 12.3 11.7205 12.3 17.7667C12.3 21.9705 17.8214 26.4751 26.7908 29.1059ZM38.8954 23.0898C36.6773 22.3669 35.4159 21.1287 35.1425 19.4108L34.9949 18.4828L34.0752 18.2874C33.8551 18.2409 33.7075 18.1753 33.6201 18.1234L33.8127 17.492C33.8619 17.4018 34.1585 17.1503 34.7188 16.989L35.3325 16.8141L35.5921 16.2319C35.8628 15.6251 36.2372 15.0771 36.7033 14.6056C36.9083 14.3978 37.0777 14.2434 37.2144 14.119C37.664 13.709 37.9579 13.366 38.0973 12.9232C39.7236 13.4603 41.5426 13.5163 42.8027 13.463C42.9981 13.4548 43.1963 13.4507 43.3986 13.4507C49.2219 13.4507 50.6433 15.0484 51.205 16.2497L51.4687 16.8155L52.0687 16.9863C52.6318 17.1462 52.9311 17.399 52.9707 17.4674L53.173 18.1247C53.0855 18.1767 52.9379 18.2409 52.7179 18.2874L51.7967 18.4814L51.6491 19.4108C51.3758 21.1287 50.113 22.3669 47.8963 23.0898L46.8344 23.4356L47.1268 25.9749C47.2307 26.8632 47.884 27.6354 48.8338 27.9907L49.8369 28.3665C49.5089 28.4021 49.1686 28.4157 48.8365 28.4444C47.2061 28.5688 45.521 28.6535 43.732 28.6535C41.354 28.6535 39.1182 28.5319 37.0203 28.3187L37.9237 27.9921C38.8927 27.6422 39.5596 26.8646 39.6635 25.9639L39.9546 23.4356L38.8954 23.0898ZM43.7334 8.20001C62.8421 8.20001 72.4334 14.3336 72.4334 17.7667C72.4334 20.582 66.5349 25.42 55.5154 27.567L49.8164 25.4323L49.8 25.2902C52.5402 24.1039 53.7005 22.2794 54.1611 20.6831C54.8034 20.4016 55.305 19.9793 55.6152 19.4531C55.9637 18.86 56.0443 18.1685 55.8407 17.507L55.5824 16.6651C55.3077 15.7713 54.5082 15.0101 53.3957 14.5577C51.3785 11.1315 46.7619 10.7188 43.3958 10.7188C43.1567 10.7188 42.9202 10.7242 42.6879 10.7338C41.16 10.7953 39.7769 10.6327 38.7902 10.2732C38.2339 10.071 38.0125 9.93021 37.9442 9.87964C37.3757 9.45871 36.6431 9.51338 36.1689 9.75254L35.3448 10.2199V11.0618C35.3448 11.3256 35.3639 11.6399 35.4227 11.9843C35.4254 12.0048 35.4295 12.0253 35.4323 12.0444C35.4118 12.0622 35.3899 12.0813 35.368 12.1018C35.2054 12.2508 35.0031 12.4353 34.7585 12.6827C34.2023 13.2457 33.7335 13.8785 33.3617 14.5714C32.267 15.0251 31.4812 15.7795 31.2079 16.6638L30.9496 17.507C30.7473 18.1685 30.8266 18.86 31.1765 19.4531C31.4867 19.9793 31.9883 20.4016 32.6292 20.6831C33.0898 22.2794 34.2515 24.1039 36.9903 25.2902L36.9739 25.4309L31.3541 27.4591C20.7119 25.2574 15.0334 20.5328 15.0334 17.7667C15.0334 14.3336 24.6246 8.20001 43.7334 8.20001Z" fill="#2C2C2C"/>
<path d="M73.8 40.5176V40.1732C78.1118 37.1405 80.6333 33.4027 80.6333 29.3123V17.7667C80.6333 7.6383 64.7704 0 43.7333 0C22.6962 0 6.83333 7.6383 6.83333 17.7667V20.869C2.37527 23.8565 0 27.4919 0 31.4333V42.9789C0 47.4848 3.0545 51.5657 8.2 54.7446V63.4789C8.2 73.8642 24.4087 82 45.1 82C65.7913 82 82 73.8642 82 63.4789V51.9333C82 47.5805 79.1491 43.6527 73.8 40.5176ZM79.2667 51.9333C79.2667 60.6704 63.3013 68.3333 45.1 68.3333C44.3142 68.3333 43.5338 68.3128 42.7575 68.2855C42.5266 68.2773 42.2956 68.2691 42.0646 68.2582C41.3881 68.2281 40.7157 68.1871 40.0488 68.1352C39.6142 68.101 39.1837 68.06 38.7532 68.0176C38.5632 67.9999 38.3733 67.9794 38.1847 67.9602C26.9411 66.7507 17.3772 62.6958 13.1938 57.5736C13.1391 57.5052 13.0804 57.4383 13.0271 57.3686C12.9642 57.2879 12.9082 57.2059 12.8467 57.1239C14.7696 57.9439 16.8619 58.6683 19.1074 59.2764C25.174 63.2671 34.6136 65.5522 45.1 65.5522C63.6238 65.5522 76.5333 58.3744 76.5333 51.9333C76.5333 50.035 75.3799 48.1449 73.1877 46.4229C73.2233 46.3259 73.2479 46.2261 73.2807 46.1277C73.3271 45.9856 73.375 45.8448 73.4146 45.7027C73.4611 45.5373 73.4993 45.372 73.5376 45.2052C73.5704 45.0617 73.6046 44.9182 73.6319 44.7734C73.6633 44.6053 73.6838 44.4358 73.7057 44.2677C73.7248 44.1215 73.7453 43.9766 73.759 43.8304C73.7631 43.788 73.7713 43.7456 73.774 43.7033C76.6017 45.6152 79.2667 48.3663 79.2667 51.9333ZM50.7457 70.8425C50.7867 70.8398 50.8263 70.8343 50.8673 70.8316C51.6518 70.7674 52.424 70.6867 53.1907 70.5979C53.3888 70.5747 53.5856 70.5514 53.7824 70.5268C54.5409 70.4312 55.294 70.3287 56.0333 70.2098V78.3988C54.2662 78.6845 52.4404 78.9059 50.5667 79.0521V70.8562C50.6254 70.8507 50.6856 70.848 50.7457 70.8425ZM58.7667 69.7068C58.8446 69.6904 58.917 69.6713 58.9935 69.6549C59.7288 69.4991 60.4559 69.3351 61.1665 69.1561C61.2595 69.1328 61.3497 69.1069 61.4426 69.0823C61.9223 68.9593 62.3979 68.8308 62.8653 68.6982V76.8832C61.5519 77.2618 60.1825 77.5993 58.7653 77.8945V69.7068H58.7667ZM65.6 67.8331C65.6738 67.8072 65.7462 67.7826 65.8187 67.7566C65.9225 67.7197 66.0209 67.6814 66.1248 67.6445C66.6892 67.4409 67.2414 67.2277 67.7839 67.009C67.9384 66.9462 68.0928 66.8847 68.2445 66.8218C68.2746 66.8095 68.3046 66.7972 68.3347 66.7849V74.9343C67.4628 75.3129 66.5526 75.6723 65.6014 76.0085V67.8331H65.6ZM71.0667 65.5125C71.3017 65.3923 71.5286 65.2665 71.7568 65.1435C71.8894 65.0725 72.022 65.0014 72.1518 64.929C72.6793 64.6338 73.1918 64.3304 73.6825 64.0188C73.7207 63.9942 73.7604 63.9709 73.7986 63.9463V71.9072C72.9677 72.5003 72.0548 73.0688 71.0653 73.6059V65.5125H71.0667ZM16.4 63.9463C17.2514 64.4916 18.1739 65.0041 19.1333 65.4975V73.6059C18.1439 73.0675 17.2309 72.5003 16.4 71.9072V63.9463ZM8.2 43.4463C8.23827 43.4709 8.2779 43.4942 8.31617 43.5188C8.80817 43.8304 9.3193 44.1338 9.84683 44.429C9.97667 44.5014 10.1106 44.5725 10.2418 44.6435C10.47 44.7679 10.6969 44.8923 10.932 45.0125V51.9333H8.96807C8.7043 51.7598 8.44873 51.5848 8.2 51.4072V43.4463ZM14.2174 46.5077C14.7586 46.7277 15.3108 46.9395 15.8766 47.1432C15.9791 47.1801 16.0788 47.2197 16.1827 47.2552C16.2551 47.2812 16.3289 47.3058 16.4014 47.3318V55.5058C15.4502 55.1696 14.54 54.8102 13.668 54.4316V46.2822C13.6981 46.2945 13.7282 46.3068 13.7582 46.3191C13.9086 46.3847 14.063 46.4462 14.2174 46.5077ZM20.8321 48.6547C21.5428 48.8337 22.2698 48.9977 23.0051 49.1535C23.0816 49.1699 23.1554 49.1891 23.232 49.2055V57.3932C23.1541 57.3768 23.0762 57.3604 22.9996 57.344C22.2657 57.1895 21.5441 57.0228 20.8348 56.8438C20.2567 56.6975 19.6909 56.5417 19.1333 56.3818V48.1969C19.6007 48.3308 20.0763 48.4579 20.556 48.5809C20.649 48.6055 20.7392 48.6315 20.8321 48.6547ZM28.808 50.0979C29.5747 50.1867 30.3482 50.2674 31.1313 50.3316C31.1723 50.3343 31.2119 50.3398 31.2529 50.3425C31.3117 50.3466 31.3718 50.3507 31.432 50.3548V58.533C30.4917 58.4605 29.5555 58.3799 28.633 58.2719C28.1875 58.22 27.7488 58.1558 27.3087 58.0956C26.855 58.0328 26.4136 57.9535 25.9653 57.8824V49.7098C26.7047 49.8287 27.4577 49.9325 28.2162 50.0268C28.4144 50.0514 28.6112 50.0747 28.808 50.0979ZM36.9 50.5667C37.817 50.5667 38.7259 50.5352 39.6333 50.4997V58.7093C39.6046 58.7106 39.5759 58.712 39.5472 58.712C38.6698 58.7448 37.7897 58.7667 36.9 58.7667C35.9843 58.7667 35.0769 58.7175 34.1667 58.6819V50.512C34.2268 50.5147 34.2897 50.5134 34.3498 50.5161C35.193 50.5462 36.0417 50.5667 36.9 50.5667ZM9.56667 24.995C9.58853 25.0223 9.6145 25.0483 9.63637 25.0742C9.93977 25.4528 10.2664 25.8259 10.6135 26.1922C10.6914 26.2742 10.7734 26.3534 10.8527 26.4341C11.1616 26.747 11.4855 27.0545 11.8244 27.3579C11.905 27.4304 11.9816 27.5028 12.0649 27.5739C12.1442 27.6422 12.2207 27.7092 12.3 27.7748V35.3885C10.5438 33.5079 9.56667 31.4511 9.56667 29.3123V24.995ZM15.0333 29.7797C15.0716 29.8043 15.1112 29.8275 15.1495 29.8521C15.6415 30.1637 16.1526 30.4671 16.6802 30.7623C16.81 30.8347 16.9439 30.9058 17.0751 30.9769C17.3034 31.1012 17.5302 31.2256 17.7653 31.3459V39.4393C16.7758 38.9008 15.8629 38.3336 15.032 37.7405V29.7797H15.0333ZM20.5 32.6169C20.5301 32.6292 20.5601 32.6415 20.5902 32.6538C20.7419 32.718 20.8963 32.7795 21.0508 32.841C21.592 33.061 22.1441 33.2729 22.7099 33.4765C22.8124 33.5134 22.9122 33.553 23.016 33.5886C23.0885 33.6145 23.1623 33.6391 23.2347 33.6651V41.8391C22.2835 41.5029 21.3733 41.1435 20.5014 40.7649V32.6169H20.5ZM25.9667 34.5302C26.4341 34.6641 26.9097 34.7912 27.3894 34.9142C27.4823 34.9388 27.5725 34.9648 27.6654 34.988C28.3761 35.1671 29.1032 35.3311 29.8384 35.4869C29.915 35.5033 29.9888 35.5224 30.0653 35.5388V43.7265C28.6481 43.4313 27.2787 43.0937 25.9653 42.7152V34.5302H25.9667ZM32.8 36.0417C33.5394 36.1606 34.2924 36.2645 35.0509 36.3588C35.2477 36.3834 35.4445 36.4066 35.6427 36.4299C36.4094 36.5187 37.1829 36.5993 37.966 36.6636C38.007 36.6663 38.0466 36.6718 38.0876 36.6745C38.1464 36.6786 38.2065 36.6827 38.2667 36.6868V44.8827C36.393 44.7365 34.5671 44.5164 32.8 44.2294V36.0417V36.0417ZM43.7333 36.9C44.5916 36.9 45.4403 36.8795 46.2835 36.8494C46.3437 36.8467 46.4065 36.8481 46.4667 36.8453V45.0139C45.5565 45.0494 44.6504 45.1 43.7333 45.1C42.8136 45.1 41.9034 45.0768 41 45.0426V36.8453C41.0601 36.8481 41.123 36.8467 41.1831 36.8494C42.0264 36.8795 42.8751 36.9 43.7333 36.9ZM49.5007 36.6649C50.2851 36.6007 51.0573 36.5201 51.824 36.4312C52.0222 36.408 52.219 36.3848 52.4158 36.3602C53.1743 36.2645 53.9273 36.162 54.6667 36.0431V44.2144C54.1528 44.2964 53.6499 44.3921 53.1278 44.4631C52.8545 44.5 52.5839 44.5397 52.3078 44.5738C51.2842 44.6996 50.2441 44.7884 49.2 44.869V36.6909C49.2588 36.6868 49.3189 36.6827 49.379 36.6786C49.42 36.6731 49.4597 36.6677 49.5007 36.6649ZM59.8012 34.988C59.8942 34.9648 59.9844 34.9388 60.0773 34.9142C60.557 34.7912 61.0326 34.6628 61.5 34.5302V42.7152C61.3251 42.7657 61.1488 42.8149 60.9725 42.8628C60.9711 42.8628 60.9684 42.8628 60.967 42.8641C60.6609 42.9489 60.352 43.0336 60.0404 43.1142C59.2874 43.3083 58.522 43.4873 57.743 43.6541C57.6282 43.6787 57.5148 43.7033 57.4 43.7265V35.5388C57.4779 35.5224 57.5503 35.5033 57.6269 35.4869C58.3635 35.3311 59.0906 35.1671 59.8012 34.988ZM64.7581 33.4779C65.3226 33.2742 65.8747 33.061 66.4173 32.8424C66.5717 32.7795 66.7261 32.718 66.8778 32.6551C66.9079 32.6428 66.938 32.6305 66.968 32.6182V40.7677C66.0961 41.1462 65.1859 41.5057 64.2347 41.8419V33.6678C64.3085 33.6419 64.3809 33.6173 64.4534 33.5913C64.5559 33.553 64.6556 33.5148 64.7581 33.4779ZM70.7851 30.7609C71.3127 30.4657 71.8252 30.1623 72.3158 29.8507C72.3541 29.8261 72.3937 29.8029 72.432 29.7783V37.7391C71.601 38.3323 70.6881 38.9008 69.6986 39.4379V31.3445C69.9337 31.2242 70.1606 31.0985 70.3888 30.9755C70.5227 30.9044 70.6553 30.8334 70.7851 30.7609ZM33.5202 61.4221C33.5722 61.4248 33.6241 61.4262 33.6747 61.4276C33.7321 61.4303 33.7908 61.4317 33.8496 61.4344C33.9644 61.4385 34.0792 61.4426 34.194 61.4467C35.0878 61.4781 35.9871 61.5 36.9 61.5C37.5396 61.5 38.1737 61.4918 38.8038 61.4768C39.0101 61.4713 39.2124 61.4617 39.4174 61.4549C39.5021 61.4522 39.5869 61.4481 39.673 61.4453C39.7973 61.4412 39.9231 61.4371 40.0474 61.4317C40.2593 61.4235 40.4725 61.418 40.6829 61.4071C40.9289 61.3948 41.1722 61.377 41.4168 61.362C41.7872 61.3401 42.1589 61.321 42.5252 61.2936C42.7944 61.2731 43.0596 61.2485 43.3274 61.2253C43.6664 61.1966 44.0067 61.1693 44.3415 61.1365C44.6094 61.1105 44.8718 61.0777 45.1369 61.049C45.4663 61.0121 45.7984 60.9779 46.125 60.9369C46.3929 60.9041 46.6553 60.8645 46.9204 60.829C47.2375 60.7852 47.5545 60.7442 47.8675 60.6964C48.134 60.6568 48.395 60.6117 48.6574 60.5679C48.9649 60.5174 49.2724 60.4695 49.5758 60.4149C49.8382 60.3684 50.0952 60.3165 50.3548 60.2673C50.65 60.2112 50.948 60.1552 51.2391 60.0951C51.4987 60.0418 51.7543 59.983 52.0112 59.927C52.2969 59.8641 52.5825 59.8026 52.864 59.737C53.1169 59.6769 53.3656 59.614 53.6143 59.5511C53.8931 59.4814 54.1719 59.4131 54.4453 59.3407C54.6885 59.2764 54.9263 59.2081 55.1669 59.1411C55.4388 59.0646 55.7122 58.9894 55.98 58.9088C56.2178 58.8377 56.4515 58.7639 56.6852 58.6901C56.9463 58.6081 57.2059 58.5275 57.4615 58.4428C57.6938 58.3662 57.9221 58.2856 58.1503 58.2063C58.4004 58.1189 58.6505 58.0328 58.8951 57.9426C59.1206 57.8606 59.3407 57.7745 59.5607 57.6897C59.8012 57.5968 60.0418 57.5039 60.2768 57.4082C60.4914 57.3207 60.7019 57.2305 60.9137 57.1417C61.146 57.0419 61.3797 56.9435 61.6066 56.841C61.8116 56.7495 62.0125 56.6552 62.2134 56.5609C62.4362 56.457 62.6576 56.3518 62.8762 56.2438C63.073 56.1468 63.2671 56.047 63.4598 55.9472C63.6703 55.8379 63.8807 55.7286 64.0857 55.6165C64.2743 55.514 64.4588 55.4101 64.642 55.3063C64.8429 55.1915 65.0424 55.0767 65.2378 54.9605C65.4155 54.8539 65.5891 54.7473 65.7613 54.638C65.9526 54.5177 66.1412 54.3974 66.3257 54.2758C66.4924 54.1651 66.6564 54.053 66.8191 53.941C66.9981 53.8166 67.1758 53.6909 67.3493 53.5638C67.5051 53.4503 67.6582 53.3342 67.8085 53.218C67.9766 53.0882 68.142 52.9583 68.3046 52.8258C68.4495 52.7082 68.5916 52.5893 68.7324 52.4691C68.8882 52.3351 69.0413 52.1998 69.1916 52.0645C69.3255 51.9429 69.4567 51.8213 69.5852 51.6969C69.7287 51.5589 69.8681 51.4195 70.0061 51.2801C70.1291 51.1543 70.2494 51.0286 70.3669 50.9015C70.4968 50.7594 70.6225 50.6172 70.7469 50.4737C70.8576 50.3439 70.9683 50.2141 71.0735 50.0829C71.191 49.938 71.3031 49.7904 71.4124 49.6428C71.5108 49.5102 71.6092 49.3777 71.7022 49.2437C71.7773 49.1358 71.8511 49.0278 71.9222 48.9185C73.1303 49.9694 73.8 51.03 73.8 51.9333C73.8 55.6288 63.6703 62.8188 45.1 62.8188C39.4762 62.8188 34.8719 62.1779 31.1887 61.2882C31.9568 61.3469 32.7358 61.3879 33.5202 61.4221ZM57.4 55.5072V47.2771C57.4875 47.2457 57.5736 47.2142 57.661 47.1828C58.1626 47.0038 58.6751 46.8343 59.1603 46.6416C59.4937 46.509 59.8053 46.3601 60.132 46.2207V54.433C59.2614 54.8115 58.3512 55.171 57.4 55.5072ZM51.6368 48.9308C52.2094 48.7996 52.7902 48.6779 53.3492 48.5317C53.7975 48.4142 54.2252 48.2748 54.6653 48.1477V56.3818C53.3519 56.7604 51.9825 57.098 50.5653 57.3932V49.1795C50.9288 49.103 51.2801 49.0128 51.6368 48.9308ZM62.8667 53.1059V45.2285C63.8083 44.9469 64.7171 44.6435 65.6 44.3224V51.4072C64.7691 52.0003 63.8561 52.5675 62.8667 53.1059ZM43.7142 50.2332C44.1652 50.1881 44.6053 50.1211 45.0522 50.0678C45.7109 49.9899 46.3751 49.9202 47.0243 49.8218C47.2976 49.7808 47.5614 49.7248 47.8333 49.6797V57.8988C47.7185 57.918 47.6024 57.9357 47.4876 57.9549C47.0789 58.0177 46.6676 58.0792 46.2521 58.1353C45.9309 58.179 45.6111 58.2255 45.2859 58.2651C44.5793 58.3498 43.8645 58.4236 43.1429 58.4865C42.9038 58.5084 42.6646 58.5289 42.4241 58.548C42.4049 58.5494 42.3844 58.5507 42.3653 58.5521V50.3343C42.8149 50.2974 43.2687 50.2769 43.7142 50.2332ZM71.0667 42.9789C71.0667 44.019 70.8316 45.0385 70.3929 46.028L70.2685 46.2849C69.8626 47.1281 69.2996 47.9413 68.6203 48.7258C68.5383 48.8187 68.4632 48.913 68.3771 49.0046C68.3634 49.0196 68.347 49.0333 68.3333 49.0483V43.2222C69.29 42.7972 70.2043 42.3489 71.0667 41.876V42.9789ZM21.8667 66.7808C22.7454 67.1512 23.657 67.501 24.6 67.829V76.0072C23.6488 75.671 22.7386 75.3115 21.8667 74.933V66.7808ZM27.3333 68.6873C28.6563 69.0659 30.0175 69.413 31.4333 69.7068V77.8945C30.0161 77.5993 28.6467 77.2618 27.3333 76.8832V68.6873ZM34.1667 70.207C34.3799 70.2412 34.6013 70.2672 34.8172 70.3C35.1438 70.3492 35.4732 70.3956 35.8026 70.4394C36.3178 70.5091 36.8344 70.5747 37.3578 70.6334C37.8785 70.6922 38.402 70.7441 38.9295 70.792C39.1646 70.8125 39.3969 70.8357 39.6333 70.8548V79.0535C37.7596 78.9072 35.9338 78.6872 34.1667 78.4002V70.207ZM77.9 24.995V29.3136C77.9 31.4525 76.9228 33.5093 75.1667 35.3898V27.7761C75.2459 27.7105 75.3225 27.6436 75.4004 27.5766C75.4824 27.5055 75.5603 27.4317 75.6409 27.3607C75.9812 27.0573 76.3051 26.7498 76.6126 26.4368C76.6919 26.3562 76.7752 26.2755 76.8518 26.1949C77.2003 25.8286 77.5255 25.4555 77.8289 25.077C77.8522 25.0469 77.8781 25.0209 77.9 24.995ZM43.7333 2.73333C62.8926 2.73333 77.9 9.33707 77.9 17.7667C77.9 26.5038 61.9346 34.1667 43.7333 34.1667C25.5321 34.1667 9.56667 26.5038 9.56667 17.7667C9.56667 9.33707 24.574 2.73333 43.7333 2.73333ZM6.83333 24.2365V29.3123C6.83333 29.628 6.84973 29.9409 6.8798 30.2525C6.88937 30.3564 6.90987 30.4589 6.92217 30.5628C6.94813 30.7691 6.9741 30.9755 7.01237 31.1805C7.0356 31.3021 7.0684 31.4224 7.0971 31.544C7.13947 31.7272 7.18047 31.9117 7.2324 32.0934C7.2693 32.2219 7.31577 32.349 7.35813 32.4775C7.41417 32.6483 7.4702 32.8191 7.5358 32.9886C7.58637 33.1212 7.64513 33.251 7.70117 33.3822C7.77087 33.5448 7.84193 33.7088 7.91983 33.8701C7.98407 34.0013 8.05377 34.1311 8.12347 34.261C8.2082 34.4195 8.29293 34.5767 8.3845 34.7325C8.46103 34.8623 8.54303 34.9921 8.62503 35.1206C8.72207 35.2737 8.82183 35.4254 8.9257 35.5771C9.01453 35.7055 9.10883 35.834 9.20313 35.9611C9.31383 36.1087 9.4259 36.2563 9.54343 36.4025C9.64457 36.5283 9.7498 36.654 9.8564 36.7797C9.9794 36.9246 10.1065 37.0667 10.2377 37.2089C10.3498 37.3319 10.4646 37.4535 10.5821 37.5751C10.7188 37.7159 10.8609 37.8553 11.0044 37.9947C11.1274 38.1136 11.2504 38.2325 11.3789 38.3487C11.5292 38.4853 11.6836 38.622 11.8408 38.7559C11.9747 38.8707 12.1073 38.9869 12.2453 39.1003C12.408 39.2343 12.5788 39.3655 12.7483 39.498C12.8904 39.6087 13.0312 39.7194 13.1788 39.8274C13.3564 39.9586 13.5409 40.0871 13.7254 40.2155C13.8758 40.3208 14.022 40.426 14.1764 40.5285C14.3705 40.6583 14.5728 40.7854 14.775 40.9125C14.9295 41.0096 15.0798 41.1093 15.2383 41.205C15.4556 41.3376 15.6825 41.4647 15.908 41.5945C16.0597 41.6806 16.2059 41.7694 16.3604 41.8542C16.6405 42.0086 16.9303 42.1576 17.22 42.3065C17.328 42.3626 17.4318 42.42 17.5412 42.4746C17.9416 42.6755 18.3516 42.871 18.7698 43.0623C18.9147 43.1279 19.0664 43.1908 19.214 43.2564C19.4955 43.3807 19.7757 43.5051 20.0654 43.6254C20.2444 43.6992 20.4303 43.7702 20.6121 43.8427C20.8772 43.9479 21.141 44.0545 21.4129 44.157C21.6125 44.2322 21.8161 44.3032 22.0184 44.3757C22.2821 44.47 22.5445 44.5656 22.8124 44.6572C23.0242 44.7296 23.2402 44.798 23.4561 44.8677C23.724 44.9551 23.9905 45.0412 24.2624 45.1246C24.4852 45.1929 24.7121 45.2585 24.9376 45.3241C25.2095 45.4034 25.4829 45.4827 25.7589 45.5592C25.9913 45.6234 26.225 45.6836 26.46 45.7451C26.7388 45.8175 27.0176 45.8899 27.3005 45.9583C27.5397 46.017 27.7816 46.0731 28.0249 46.1291C28.3119 46.1947 28.6002 46.2603 28.8913 46.3232C29.1373 46.3765 29.3847 46.427 29.6321 46.4776C29.9273 46.5377 30.2225 46.5951 30.5218 46.6512C30.7719 46.6976 31.0233 46.7441 31.2762 46.7878C31.5809 46.8411 31.8898 46.8917 32.1987 46.9409C32.4515 46.9819 32.7057 47.0215 32.9613 47.0598C33.2756 47.1063 33.594 47.15 33.9125 47.1924C34.168 47.2265 34.4236 47.2607 34.6819 47.2921C35.0099 47.3318 35.3406 47.3687 35.6714 47.4042C35.9256 47.4315 36.1784 47.4602 36.434 47.4848C36.7756 47.5176 37.12 47.5463 37.4644 47.575C37.7186 47.5955 37.9701 47.6188 38.2257 47.6365C38.5851 47.6625 38.9486 47.683 39.3122 47.7035C39.5541 47.7172 39.7946 47.7336 40.0392 47.7459C40.0912 47.7486 40.1417 47.7527 40.1937 47.7554C39.1044 47.806 38.0056 47.8333 36.9 47.8333C18.6987 47.8333 2.73333 40.1704 2.73333 31.4333C2.73333 28.4226 4.66717 26.0036 6.83333 24.2365ZM2.73333 42.9789V38.6603C2.7552 38.6876 2.78117 38.7136 2.80303 38.7395C3.10643 39.1181 3.43307 39.4912 3.7802 39.8575C3.8581 39.9395 3.9401 40.0187 4.01937 40.0994C4.32823 40.4123 4.65213 40.7198 4.99107 41.0232C5.0717 41.0957 5.14823 41.1681 5.2316 41.2392C5.31087 41.3089 5.3874 41.3758 5.46667 41.4414V49.0551C3.7105 47.1746 2.73333 45.1178 2.73333 42.9789ZM10.9333 63.4789V59.1603C11.6959 60.1265 12.6212 61.049 13.6667 61.9291V69.5538C11.9105 67.6746 10.9333 65.6178 10.9333 63.4789ZM42.3667 79.2093V71.012C42.4323 71.0147 42.4992 71.0134 42.5648 71.0161C43.404 71.0462 44.2486 71.0667 45.1 71.0667C45.9583 71.0667 46.807 71.0462 47.6502 71.0161C47.7103 71.0134 47.7732 71.0147 47.8333 71.012V79.2093C46.93 79.2434 46.0198 79.2667 45.1 79.2667C44.1802 79.2667 43.27 79.2434 42.3667 79.2093ZM79.2667 59.1616V63.4803C79.2667 65.6191 78.2895 67.676 76.5333 69.5565V61.9428C76.6126 61.8772 76.6891 61.8102 76.767 61.7433C76.849 61.6722 76.9269 61.5984 77.0076 61.5273C77.3479 61.2239 77.6718 60.9164 77.9793 60.6035C78.0585 60.5228 78.1419 60.4422 78.2184 60.3616C78.5669 59.9953 78.8922 59.6222 79.1956 59.2436C79.2188 59.2136 79.2448 59.1876 79.2667 59.1616Z" fill="#2C2C2C"/>
</svg>
