<svg width="30" height="30" viewBox="0 0 30 30" fill="none" xmlns="http://www.w3.org/2000/svg">
<path d="M11.5021 19.3139L11.0345 22.0478C10.9708 22.4215 11.1266 22.7982 11.4374 23.0212C11.7488 23.2438 12.1622 23.2736 12.5023 23.0981L14.9993 21.8151L17.4962 23.0984C17.644 23.1738 17.8059 23.2118 17.966 23.2118C18.1758 23.2118 18.385 23.1472 18.5616 23.0214C18.8727 22.7984 19.0289 22.4218 18.9647 22.048L18.4976 19.3142L20.5082 17.3728C20.7831 17.1077 20.881 16.7121 20.7631 16.352C20.6447 15.9922 20.3277 15.7288 19.9473 15.6735L17.1612 15.2668L15.9064 12.7841C15.7362 12.4452 15.3836 12.2306 14.999 12.2306C14.6152 12.2306 14.2628 12.4452 14.0912 12.7841L12.8376 15.2668L10.0515 15.6732C9.67032 15.7285 9.35484 15.9919 9.23617 16.3518C9.1175 16.7118 9.21517 17.1079 9.4906 17.3726L11.5021 19.3139Z" fill="white"/>
<path d="M26.9734 3.18931H23.7832V1.44743C23.7832 0.648004 23.1249 0 22.3125 0H22.0793C21.2672 0 20.6091 0.648004 20.6091 1.44743V3.18931H9.35325V1.44743C9.35325 0.648004 8.69495 0 7.88306 0H7.64962C6.83748 0 6.17942 0.648004 6.17942 1.44743V3.18931H3.02635C1.35788 3.18931 0 4.52545 0 6.1683V27.021C0 28.6629 1.35788 30 3.02635 30H26.9737C28.6419 30 30 28.6631 30 27.021V6.1683C29.9998 4.52545 28.6416 3.18931 26.9734 3.18931ZM26.5786 26.6323H3.42118V10.3998H26.5786V26.6323Z" fill="white"/>
</svg>
