<svg width="30" height="30" viewBox="0 0 30 30" fill="none" xmlns="http://www.w3.org/2000/svg">
<path d="M21.0585 21.5035C20.7835 21.47 20.5355 21.667 20.5035 21.9415C20.4715 22.216 20.6675 22.4645 20.9415 22.4965C26.1995 23.1155 29 24.7835 29 25.75C29 27.107 23.674 29 15 29C6.326 29 1 27.107 1 25.75C1 24.7835 3.8005 23.1155 9.0585 22.4965C9.3325 22.4645 9.5285 22.2155 9.4965 21.9415C9.464 21.667 9.216 21.469 8.9415 21.5035C3.677 22.1235 0 23.8695 0 25.75C0 27.862 5.1525 30 15 30C24.8475 30 30 27.862 30 25.75C30 23.8695 26.323 22.1235 21.0585 21.5035Z" fill="white"/>
<path d="M14.9115 27.3785L22.582 16.3C25.459 12.4645 25.043 6.16 21.6915 2.809C19.8805 0.9975 17.4725 0 14.9115 0C12.3505 0 9.94252 0.9975 8.13152 2.8085C4.78002 6.1595 4.36402 12.464 7.22952 16.2845L14.9115 27.3785ZM15 6C16.93 6 18.5 7.5705 18.5 9.5C18.5 11.4295 16.93 13 15 13C13.07 13 11.5 11.4295 11.5 9.5C11.5 7.5705 13.07 6 15 6Z" fill="white"/>
</svg>
