<svg width="30" height="24" viewBox="0 0 30 24" fill="none" xmlns="http://www.w3.org/2000/svg">
<path d="M6.96433 8.57178H1.60699C1.16071 8.57178 0.781157 8.72799 0.468624 9.04052C0.156149 9.35288 0 9.73231 0 10.1789V13.3935C0 13.8397 0.156149 14.219 0.468624 14.5314C0.781157 14.8439 1.16071 15.0002 1.60699 15.0002H6.96433C7.41061 15.0002 7.79016 14.8439 8.1027 14.5314C8.41523 14.219 8.57132 13.8397 8.57132 13.3935V10.1789C8.57132 9.73231 8.41523 9.35288 8.1027 9.04052C7.79016 8.72816 7.41061 8.57178 6.96433 8.57178Z" fill="white"/>
<path d="M6.96433 0H1.60699C1.16071 0 0.781157 0.156149 0.468624 0.468682C0.156149 0.781215 0 1.16077 0 1.60705V4.82157C0 5.26815 0.156149 5.64782 0.468624 5.96012C0.781157 6.27247 1.16071 6.42886 1.60699 6.42886H6.96433C7.41061 6.42886 7.79016 6.27247 8.1027 5.96012C8.41523 5.64776 8.57132 5.26832 8.57132 4.82174V1.60729C8.57132 1.161 8.41523 0.78145 8.1027 0.468741C7.79016 0.156325 7.41061 0 6.96433 0Z" fill="white"/>
<path d="M6.96433 17.1432H1.60699C1.16071 17.1432 0.781157 17.2993 0.468624 17.6119C0.156149 17.9245 0 18.304 0 18.7503V21.9651C0 22.4113 0.156149 22.7911 0.468624 23.1032C0.781157 23.4159 1.16071 23.5718 1.60699 23.5718H6.96433C7.41061 23.5718 7.79016 23.4157 8.1027 23.1032C8.41523 22.7911 8.57132 22.4113 8.57132 21.9651V18.7503C8.57132 18.304 8.41523 17.9245 8.1027 17.6121C7.79016 17.2997 7.41061 17.1432 6.96433 17.1432Z" fill="white"/>
<path d="M28.3927 8.57178H12.3213C11.8749 8.57178 11.4955 8.72799 11.183 9.04052C10.8704 9.35305 10.7144 9.73231 10.7144 10.1789V13.3935C10.7144 13.8397 10.8704 14.219 11.183 14.5314C11.4953 14.8439 11.8749 15.0002 12.3213 15.0002H28.3931C28.8393 15.0002 29.219 14.8439 29.5312 14.5314C29.8439 14.219 30 13.8397 30 13.3935V10.1789C30 9.73231 29.8439 9.35288 29.5311 9.04052C29.2186 8.72799 28.8394 8.57178 28.3927 8.57178Z" fill="white"/>
<path d="M28.3927 17.1432H12.3213C11.8749 17.1432 11.4955 17.2993 11.183 17.6119C10.8704 17.9245 10.7144 18.3038 10.7144 18.7501V21.9647C10.7144 22.411 10.8704 22.7908 11.183 23.1032C11.4953 23.4157 11.8749 23.5716 12.3213 23.5716H28.3931C28.8393 23.5716 29.219 23.4155 29.5312 23.1032C29.8439 22.7907 30 22.411 30 21.9647V18.7501C30 18.3038 29.8439 17.9242 29.5311 17.6119C29.2186 17.2997 28.8394 17.1432 28.3927 17.1432Z" fill="white"/>
<path d="M29.5311 0.468926C29.2186 0.156569 28.8393 0.000244141 28.3927 0.000244141H12.3213C11.8749 0.000244141 11.4955 0.156393 11.183 0.468926C10.8704 0.781459 10.7144 1.16101 10.7144 1.6073V4.82181C10.7144 5.26839 10.8704 5.64759 11.183 5.96018C11.4953 6.27254 11.8749 6.42892 12.3213 6.42892H28.3931C28.8393 6.42892 29.2186 6.27254 29.5312 5.96018C29.8439 5.64783 30 5.26839 30 4.82181V1.6073C30 1.16096 29.8439 0.781459 29.5311 0.468926Z" fill="white"/>
</svg>
