<svg width="24" height="24" viewBox="0 0 24 24" fill="none" xmlns="http://www.w3.org/2000/svg">
<path d="M7.68 16.6H20.6V17H7.2C6.43228 17 5.8 16.3677 5.8 15.6C5.8 15.4231 5.86399 15.1139 5.95843 14.8102L7.58378 12.0239L7.84945 11.5684L7.62374 11.0919L3.30374 1.97191L3.03283 1.4H2.4H1V1H3.31341L4.12808 2.81036L4.39341 3.4H5.04H22.8C22.8687 3.4 22.9108 3.41134 22.9323 3.4196C22.9528 3.42751 22.9605 3.4347 22.9629 3.43711C22.9653 3.43951 22.9725 3.44716 22.9804 3.46773C22.9863 3.48315 22.9939 3.50922 22.9976 3.54816L22.9534 3.5924L22.8852 3.7155L18.5652 11.5155L18.555 11.5339L18.5456 11.5527C18.3597 11.9245 17.9919 12.2 17.4 12.2H8.52H7.91792L7.63621 12.7321L6.55621 14.7721L6.44 14.9916V15.24V15.36C6.44 15.7452 6.62255 16.0468 6.80789 16.2321C6.99324 16.4174 7.29477 16.6 7.68 16.6ZM5.8 21.6C5.8 20.8323 6.43228 20.2 7.2 20.2C7.96772 20.2 8.6 20.8323 8.6 21.6C8.6 22.3677 7.96772 23 7.2 23C6.43228 23 5.8 22.3677 5.8 21.6ZM17.8 21.6C17.8 20.8323 18.4323 20.2 19.2 20.2C19.9677 20.2 20.6 20.8323 20.6 21.6C20.6 22.3677 19.9677 23 19.2 23C18.4323 23 17.8 22.3677 17.8 21.6Z" stroke="white" stroke-width="2"/>
</svg>
