<svg width="20" height="20" fill="none" xmlns="http://www.w3.org/2000/svg"><path d="M14.823 11.248c-.75.751-1.924 1.925-2.907 2.914-1.168-.764-2.224-1.607-3.073-2.456-1.049-1.047-2.36-2.539-3.068-3.596.9-.892 2.076-2.066 2.94-2.928L3.527 0 .94 2.54l-.004.003c-.724.723-1.03 1.711-.91 2.936.381 3.915 5.172 9.585 9.408 12.426 2.452 1.644 5.977 3.166 8.062 1.083 1.513-1.512 2.092-2.128 2.116-2.154L20 16.42l-5.177-5.173zm1.843 6.911c-1.579 1.577-4.708.026-6.578-1.228-3.93-2.636-8.55-8.034-8.895-11.566-.083-.858.109-1.527.571-1.991L3.52 1.651l3.534 3.53C5.262 6.97 4.722 7.503 4.293 7.928l.227.392c.692 1.19 2.296 3.02 3.493 4.217 1.314 1.312 2.662 2.239 4.072 3.12l.33-.332c.725-.731 1.778-1.786 2.409-2.417l3.538 3.535c-.328.338-.875.896-1.696 1.717z" fill="#857122"/></svg>